<svg width="1365" height="586" viewBox="0 0 1365 586" fill="none" xmlns="http://www.w3.org/2000/svg">
<line x1="38.5" y1="1.52369e-05" x2="38.5" y2="468" stroke="#333237"/>
<line x1="77.5" y1="1.52369e-05" x2="77.5" y2="468" stroke="#333237"/>
<line x1="116.5" y1="1.52369e-05" x2="116.5" y2="468" stroke="#333237"/>
<line x1="155.5" y1="1.52369e-05" x2="155.5" y2="468" stroke="#333237"/>
<line x1="194.5" y1="1.52369e-05" x2="194.5" y2="468" stroke="#333237"/>
<line x1="233.5" y1="1.52369e-05" x2="233.5" y2="429" stroke="#333237"/>
<line x1="272.5" y1="1.52369e-05" x2="272.5" y2="390" stroke="#333237"/>
<line x1="311.5" y1="1.52369e-05" x2="311.5" y2="390" stroke="#333237"/>
<line x1="350.5" y1="1.52369e-05" x2="350.5" y2="390" stroke="#333237"/>
<line x1="389.5" y1="1.52369e-05" x2="389.5" y2="351" stroke="#333237"/>
<line x1="428.5" y1="1.52369e-05" x2="428.5" y2="312" stroke="#333237"/>
<line x1="467.5" y1="1.52369e-05" x2="467.5" y2="312" stroke="#333237"/>
<line x1="506.5" y1="1.52369e-05" x2="506.5" y2="351" stroke="#333237"/>
<line x1="545.5" y1="-2.45877e-08" x2="545.5" y2="351" stroke="#333237"/>
<line x1="584.5" y1="-2.45877e-08" x2="584.5" y2="351" stroke="#333237"/>
<line x1="623.5" y1="1.52369e-05" x2="623.5" y2="312" stroke="#333237"/>
<line x1="662.5" y1="1.52369e-05" x2="662.5" y2="312" stroke="#333237"/>
<line x1="701.5" y1="1.52369e-05" x2="701.5" y2="312" stroke="#333237"/>
<line x1="740.5" y1="1.52369e-05" x2="740.5" y2="312" stroke="#333237"/>
<line x1="779.5" y1="1.52369e-05" x2="779.5" y2="312" stroke="#333237"/>
<line x1="818.5" y1="1.52369e-05" x2="818.5" y2="351" stroke="#333237"/>
<line x1="857.5" y1="1.52369e-05" x2="857.5" y2="351" stroke="#333237"/>
<line x1="896.5" y1="1.52369e-05" x2="896.5" y2="312" stroke="#333237"/>
<line x1="935.5" y1="1.52369e-05" x2="935.5" y2="351" stroke="#333237"/>
<line x1="974.5" y1="1.52369e-05" x2="974.5" y2="390" stroke="#333237"/>
<line x1="1013.5" y1="1.52369e-05" x2="1013.5" y2="390" stroke="#333237"/>
<line x1="1052.5" y1="1.52369e-05" x2="1052.5" y2="429" stroke="#333237"/>
<line x1="1091.5" y1="1.52369e-05" x2="1091.5" y2="429" stroke="#333237"/>
<line x1="1130.5" y1="1.52369e-05" x2="1130.5" y2="390" stroke="#333237"/>
<line x1="1169.5" y1="1.52369e-05" x2="1169.5" y2="429" stroke="#333237"/>
<line x1="1208.5" y1="1.52369e-05" x2="1208.5" y2="468" stroke="#333237"/>
<line x1="1247.5" y1="1.52369e-05" x2="1247.5" y2="468" stroke="#333237"/>
<line x1="1286.5" y1="1.52369e-05" x2="1286.5" y2="468" stroke="#333237"/>
<line x1="1325.5" y1="1.52369e-05" x2="1325.5" y2="468" stroke="#333237"/>
<line x1="1364.5" y1="1.52369e-05" x2="1364.5" y2="430" stroke="#333237"/>
<line x1="1364" y1="39.5" x2="-4.1149e-07" y2="39.5" stroke="#333237"/>
<line x1="1364" y1="78.5" x2="-4.1149e-07" y2="78.5" stroke="#333237"/>
<line x1="1364" y1="117.5" x2="-4.1149e-07" y2="117.5" stroke="#333237"/>
<line x1="1364" y1="156.5" x2="-4.1149e-07" y2="156.5" stroke="#333237"/>
<line x1="1364" y1="195.5" x2="-4.1149e-07" y2="195.5" stroke="#333237"/>
<line x1="1364" y1="234.5" x2="-4.1149e-07" y2="234.5" stroke="#333237"/>
<line x1="1364" y1="273.5" x2="-4.1149e-07" y2="273.5" stroke="#333237"/>
<line x1="1364" y1="312.5" x2="-4.1149e-07" y2="312.5" stroke="#333237"/>
<line x1="585" y1="351.5" x2="506" y2="351.5" stroke="#333237"/>
<line x1="858" y1="351.5" x2="818" y2="351.5" stroke="#333237"/>
<line x1="1092" y1="429.5" x2="1052" y2="429.5" stroke="#333237"/>
<line x1="1364" y1="351.5" x2="935" y2="351.5" stroke="#333237"/>
<line x1="390" y1="351.5" y2="351.5" stroke="#333237"/>
<line x1="1364" y1="390.5" x2="974" y2="390.5" stroke="#333237"/>
<line x1="351" y1="390.5" y2="390.5" stroke="#333237"/>
<line x1="234" y1="429.5" y2="429.5" stroke="#333237"/>
<line x1="1364" y1="429.5" x2="1169" y2="429.5" stroke="#333237"/>
<line x1="1326" y1="468.5" x2="1208" y2="468.5" stroke="#333237"/>
<line x1="78" y1="468.5" x2="38" y2="468.5" stroke="#333237"/>
<line x1="195" y1="468.5" x2="116" y2="468.5" stroke="#333237"/>
<rect x="155.5" y="546.5" width="39" height="39" stroke="#333237"/>
<rect x="272.5" y="429.5" width="39" height="39" stroke="#333237"/>
<rect x="1091.5" y="468.5" width="39" height="39" stroke="#333237"/>
<rect x="1247.5" y="507.5" width="39" height="39" stroke="#333237"/>
</svg>
