<svg width="440" height="302" viewBox="0 0 440 302" fill="none" xmlns="http://www.w3.org/2000/svg">
<g opacity="0.6" clip-path="url(#clip0_4479_20243)">
<g opacity="0.1" filter="url(#filter0_f_4479_20243)">
<path d="M103 20.2344L104.732 21.2344L153.866 -65.8682L103 20.2344Z" fill="#F2994A"/>
</g>
<rect opacity="0.2" x="116" y="25.5938" width="4" height="4" fill="#F2994A"/>
<rect opacity="0.2" x="219.5" y="26.5586" width="4" height="4" transform="rotate(45 219.5 26.5586)" fill="#F2994A"/>
<g opacity="0.1" filter="url(#filter1_f_4479_20243)">
<path d="M23 150.233L24.7321 151.233L73.866 64.1309L23 150.233Z" fill="#F2994A"/>
</g>
<rect opacity="0.2" x="36" y="155.593" width="4" height="4" fill="#F2994A"/>
<rect opacity="0.5" x="89" y="51.7637" width="5" height="5" transform="rotate(45 89 51.7637)" fill="#F2994A"/>
<rect opacity="0.5" x="125.586" y="79.5918" width="2" height="2" transform="rotate(-45 125.586 79.5918)" fill="#F2994A"/>
<rect opacity="0.1" x="177" y="137.592" width="3" height="3" fill="#F2994A"/>
<rect opacity="0.4" x="190.828" y="86.5918" width="4" height="4" transform="rotate(45 190.828 86.5918)" fill="#F2994A"/>
<rect opacity="0.2" x="139.5" y="156.557" width="4" height="4" transform="rotate(45 139.5 156.557)" fill="#F2994A"/>
<rect opacity="0.4" x="52" y="67.5918" width="2" height="2" fill="#F2994A"/>
<g opacity="0.4" filter="url(#filter2_f_4479_20243)">
<path d="M66.1328 151.754L67.8649 152.754L117.499 64.7853L66.1328 151.754Z" fill="#F2994A"/>
</g>
<g opacity="0.2" filter="url(#filter3_f_4479_20243)">
<path d="M134.133 103.756L136.731 105.256L169.932 44.7501L134.133 103.756Z" fill="#F2994A"/>
</g>
<g opacity="0.05" filter="url(#filter4_f_4479_20243)">
<path d="M184.133 163.756L186.731 165.256L219.932 104.75L184.133 163.756Z" fill="#F2994A"/>
</g>
<g opacity="0.05" filter="url(#filter5_f_4479_20243)">
<path d="M98.1328 199.754L100.731 201.254L153.932 106.107L98.1328 199.754Z" fill="#F2994A"/>
</g>
<g opacity="0.05" filter="url(#filter6_f_4479_20243)">
<path d="M218.133 69.7539L220.731 71.2539L273.932 -23.8929L218.133 69.7539Z" fill="#F2994A"/>
</g>
<g opacity="0.05" filter="url(#filter7_f_4479_20243)">
<path d="M253 110.234L254.732 111.234L303.866 24.1318L253 110.234Z" fill="#F2994A"/>
</g>
<rect opacity="0.2" x="266" y="115.594" width="4" height="4" fill="#F2994A"/>
<rect opacity="0.5" x="319" y="11.7637" width="5" height="5" transform="rotate(45 319 11.7637)" fill="#F2994A"/>
<rect opacity="0.5" x="355.586" y="39.5938" width="2" height="2" transform="rotate(-45 355.586 39.5938)" fill="#F2994A"/>
<rect opacity="0.1" x="387" y="27.5938" width="3" height="3" fill="#F2994A"/>
<rect opacity="0.4" x="420.828" y="46.5938" width="4" height="4" transform="rotate(45 420.828 46.5938)" fill="#F2994A"/>
<rect opacity="0.2" x="369.5" y="116.559" width="4" height="4" transform="rotate(45 369.5 116.559)" fill="#F2994A"/>
<rect opacity="0.4" x="282" y="27.5938" width="2" height="2" fill="#F2994A"/>
<g opacity="0.4" filter="url(#filter8_f_4479_20243)">
<path d="M296.133 111.756L297.865 112.756L347.499 24.7873L296.133 111.756Z" fill="#F2994A"/>
</g>
<g opacity="0.2" filter="url(#filter9_f_4479_20243)">
<path d="M364.133 63.7559L366.731 65.2559L399.932 4.7501L364.133 63.7559Z" fill="#F2994A"/>
</g>
<g opacity="0.05" filter="url(#filter10_f_4479_20243)">
<path d="M253 220.233L254.732 221.233L303.866 134.131L253 220.233Z" fill="#F2994A"/>
</g>
<rect opacity="0.2" x="266" y="225.594" width="4" height="4" fill="#F2994A"/>
<rect opacity="0.5" x="319" y="121.764" width="5" height="5" transform="rotate(45 319 121.764)" fill="#F2994A"/>
<rect opacity="0.5" x="355.586" y="149.594" width="2" height="2" transform="rotate(-45 355.586 149.594)" fill="#F2994A"/>
<rect opacity="0.1" x="387" y="137.592" width="3" height="3" fill="#F2994A"/>
<rect opacity="0.4" x="420.828" y="156.594" width="4" height="4" transform="rotate(45 420.828 156.594)" fill="#F2994A"/>
<rect opacity="0.2" x="369.5" y="226.558" width="4" height="4" transform="rotate(45 369.5 226.558)" fill="#F2994A"/>
<rect opacity="0.4" x="282" y="137.594" width="2" height="2" fill="#F2994A"/>
<g opacity="0.05" filter="url(#filter11_f_4479_20243)">
<path d="M305.133 194.755L306.865 195.755L356.499 107.786L305.133 194.755Z" fill="#F2994A"/>
</g>
<g opacity="0.2" filter="url(#filter12_f_4479_20243)">
<path d="M284.133 303.754L286.731 305.254L319.932 244.748L284.133 303.754Z" fill="#F2994A"/>
</g>
<g opacity="0.2" filter="url(#filter13_f_4479_20243)">
<path d="M364.133 173.756L366.731 175.256L399.932 114.75L364.133 173.756Z" fill="#F2994A"/>
</g>
<g opacity="0.05" filter="url(#filter14_f_4479_20243)">
<path d="M358.133 279.754L360.731 281.254L413.932 186.107L358.133 279.754Z" fill="#F2994A"/>
</g>
<g opacity="0.1" filter="url(#filter15_f_4479_20243)">
<path d="M363 330.233L364.732 331.233L413.866 244.131L363 330.233Z" fill="#F2994A"/>
</g>
<rect opacity="0.5" x="429" y="231.764" width="5" height="5" transform="rotate(45 429 231.764)" fill="#F2994A"/>
<rect opacity="0.4" x="392" y="247.592" width="2" height="2" fill="#F2994A"/>
<g opacity="0.4" filter="url(#filter16_f_4479_20243)">
<path d="M406.133 331.753L407.865 332.753L457.499 244.784L406.133 331.753Z" fill="#F2994A"/>
</g>
<rect opacity="0.4" x="10.8281" y="76.5918" width="4" height="4" transform="rotate(45 10.8281 76.5918)" fill="#F2994A"/>
<rect opacity="0.4" x="10.8281" y="186.592" width="4" height="4" transform="rotate(45 10.8281 186.592)" fill="#F2994A"/>
<g opacity="0.5" filter="url(#filter17_f_4479_20243)">
<path d="M-41.8672 299.757L-39.2691 301.257L13.9318 206.11L-41.8672 299.757Z" fill="#F2994A"/>
</g>
<g opacity="0.2" filter="url(#filter18_f_4479_20243)">
<path d="M234.133 33.7578L236.731 35.2578L269.932 -25.2479L234.133 33.7578Z" fill="#F2994A"/>
</g>
</g>
<defs>
<filter id="filter0_f_4479_20243" x="101" y="-67.8691" width="54.8672" height="91.1035" filterUnits="userSpaceOnUse" color-interpolation-filters="sRGB">
<feFlood flood-opacity="0" result="BackgroundImageFix"/>
<feBlend mode="normal" in="SourceGraphic" in2="BackgroundImageFix" result="shape"/>
<feGaussianBlur stdDeviation="1" result="effect1_foregroundBlur_4479_20243"/>
</filter>
<filter id="filter1_f_4479_20243" x="21" y="62.1309" width="54.8672" height="91.1025" filterUnits="userSpaceOnUse" color-interpolation-filters="sRGB">
<feFlood flood-opacity="0" result="BackgroundImageFix"/>
<feBlend mode="normal" in="SourceGraphic" in2="BackgroundImageFix" result="shape"/>
<feGaussianBlur stdDeviation="1" result="effect1_foregroundBlur_4479_20243"/>
</filter>
<filter id="filter2_f_4479_20243" x="64.1328" y="62.7852" width="55.3672" height="91.9688" filterUnits="userSpaceOnUse" color-interpolation-filters="sRGB">
<feFlood flood-opacity="0" result="BackgroundImageFix"/>
<feBlend mode="normal" in="SourceGraphic" in2="BackgroundImageFix" result="shape"/>
<feGaussianBlur stdDeviation="1" result="effect1_foregroundBlur_4479_20243"/>
</filter>
<filter id="filter3_f_4479_20243" x="132.133" y="42.75" width="39.8008" height="64.5059" filterUnits="userSpaceOnUse" color-interpolation-filters="sRGB">
<feFlood flood-opacity="0" result="BackgroundImageFix"/>
<feBlend mode="normal" in="SourceGraphic" in2="BackgroundImageFix" result="shape"/>
<feGaussianBlur stdDeviation="1" result="effect1_foregroundBlur_4479_20243"/>
</filter>
<filter id="filter4_f_4479_20243" x="182.133" y="102.75" width="39.8008" height="64.5059" filterUnits="userSpaceOnUse" color-interpolation-filters="sRGB">
<feFlood flood-opacity="0" result="BackgroundImageFix"/>
<feBlend mode="normal" in="SourceGraphic" in2="BackgroundImageFix" result="shape"/>
<feGaussianBlur stdDeviation="1" result="effect1_foregroundBlur_4479_20243"/>
</filter>
<filter id="filter5_f_4479_20243" x="96.1328" y="104.107" width="59.8008" height="99.1465" filterUnits="userSpaceOnUse" color-interpolation-filters="sRGB">
<feFlood flood-opacity="0" result="BackgroundImageFix"/>
<feBlend mode="normal" in="SourceGraphic" in2="BackgroundImageFix" result="shape"/>
<feGaussianBlur stdDeviation="1" result="effect1_foregroundBlur_4479_20243"/>
</filter>
<filter id="filter6_f_4479_20243" x="216.133" y="-25.8926" width="59.8008" height="99.1465" filterUnits="userSpaceOnUse" color-interpolation-filters="sRGB">
<feFlood flood-opacity="0" result="BackgroundImageFix"/>
<feBlend mode="normal" in="SourceGraphic" in2="BackgroundImageFix" result="shape"/>
<feGaussianBlur stdDeviation="1" result="effect1_foregroundBlur_4479_20243"/>
</filter>
<filter id="filter7_f_4479_20243" x="251" y="22.1309" width="54.8672" height="91.1035" filterUnits="userSpaceOnUse" color-interpolation-filters="sRGB">
<feFlood flood-opacity="0" result="BackgroundImageFix"/>
<feBlend mode="normal" in="SourceGraphic" in2="BackgroundImageFix" result="shape"/>
<feGaussianBlur stdDeviation="1" result="effect1_foregroundBlur_4479_20243"/>
</filter>
<filter id="filter8_f_4479_20243" x="294.133" y="22.7871" width="55.3672" height="91.9688" filterUnits="userSpaceOnUse" color-interpolation-filters="sRGB">
<feFlood flood-opacity="0" result="BackgroundImageFix"/>
<feBlend mode="normal" in="SourceGraphic" in2="BackgroundImageFix" result="shape"/>
<feGaussianBlur stdDeviation="1" result="effect1_foregroundBlur_4479_20243"/>
</filter>
<filter id="filter9_f_4479_20243" x="362.133" y="2.75" width="39.8008" height="64.5059" filterUnits="userSpaceOnUse" color-interpolation-filters="sRGB">
<feFlood flood-opacity="0" result="BackgroundImageFix"/>
<feBlend mode="normal" in="SourceGraphic" in2="BackgroundImageFix" result="shape"/>
<feGaussianBlur stdDeviation="1" result="effect1_foregroundBlur_4479_20243"/>
</filter>
<filter id="filter10_f_4479_20243" x="251" y="132.131" width="54.8672" height="91.1025" filterUnits="userSpaceOnUse" color-interpolation-filters="sRGB">
<feFlood flood-opacity="0" result="BackgroundImageFix"/>
<feBlend mode="normal" in="SourceGraphic" in2="BackgroundImageFix" result="shape"/>
<feGaussianBlur stdDeviation="1" result="effect1_foregroundBlur_4479_20243"/>
</filter>
<filter id="filter11_f_4479_20243" x="303.133" y="105.787" width="55.3672" height="91.9678" filterUnits="userSpaceOnUse" color-interpolation-filters="sRGB">
<feFlood flood-opacity="0" result="BackgroundImageFix"/>
<feBlend mode="normal" in="SourceGraphic" in2="BackgroundImageFix" result="shape"/>
<feGaussianBlur stdDeviation="1" result="effect1_foregroundBlur_4479_20243"/>
</filter>
<filter id="filter12_f_4479_20243" x="282.133" y="242.748" width="39.8008" height="64.5059" filterUnits="userSpaceOnUse" color-interpolation-filters="sRGB">
<feFlood flood-opacity="0" result="BackgroundImageFix"/>
<feBlend mode="normal" in="SourceGraphic" in2="BackgroundImageFix" result="shape"/>
<feGaussianBlur stdDeviation="1" result="effect1_foregroundBlur_4479_20243"/>
</filter>
<filter id="filter13_f_4479_20243" x="362.133" y="112.75" width="39.8008" height="64.5059" filterUnits="userSpaceOnUse" color-interpolation-filters="sRGB">
<feFlood flood-opacity="0" result="BackgroundImageFix"/>
<feBlend mode="normal" in="SourceGraphic" in2="BackgroundImageFix" result="shape"/>
<feGaussianBlur stdDeviation="1" result="effect1_foregroundBlur_4479_20243"/>
</filter>
<filter id="filter14_f_4479_20243" x="356.133" y="184.107" width="59.8008" height="99.1465" filterUnits="userSpaceOnUse" color-interpolation-filters="sRGB">
<feFlood flood-opacity="0" result="BackgroundImageFix"/>
<feBlend mode="normal" in="SourceGraphic" in2="BackgroundImageFix" result="shape"/>
<feGaussianBlur stdDeviation="1" result="effect1_foregroundBlur_4479_20243"/>
</filter>
<filter id="filter15_f_4479_20243" x="361" y="242.131" width="54.8672" height="91.1025" filterUnits="userSpaceOnUse" color-interpolation-filters="sRGB">
<feFlood flood-opacity="0" result="BackgroundImageFix"/>
<feBlend mode="normal" in="SourceGraphic" in2="BackgroundImageFix" result="shape"/>
<feGaussianBlur stdDeviation="1" result="effect1_foregroundBlur_4479_20243"/>
</filter>
<filter id="filter16_f_4479_20243" x="404.133" y="242.784" width="55.3672" height="91.9688" filterUnits="userSpaceOnUse" color-interpolation-filters="sRGB">
<feFlood flood-opacity="0" result="BackgroundImageFix"/>
<feBlend mode="normal" in="SourceGraphic" in2="BackgroundImageFix" result="shape"/>
<feGaussianBlur stdDeviation="1" result="effect1_foregroundBlur_4479_20243"/>
</filter>
<filter id="filter17_f_4479_20243" x="-43.8672" y="204.11" width="59.8008" height="99.1465" filterUnits="userSpaceOnUse" color-interpolation-filters="sRGB">
<feFlood flood-opacity="0" result="BackgroundImageFix"/>
<feBlend mode="normal" in="SourceGraphic" in2="BackgroundImageFix" result="shape"/>
<feGaussianBlur stdDeviation="1" result="effect1_foregroundBlur_4479_20243"/>
</filter>
<filter id="filter18_f_4479_20243" x="232.133" y="-27.248" width="39.8008" height="64.5059" filterUnits="userSpaceOnUse" color-interpolation-filters="sRGB">
<feFlood flood-opacity="0" result="BackgroundImageFix"/>
<feBlend mode="normal" in="SourceGraphic" in2="BackgroundImageFix" result="shape"/>
<feGaussianBlur stdDeviation="1" result="effect1_foregroundBlur_4479_20243"/>
</filter>
<clipPath id="clip0_4479_20243">
<rect width="440" height="302" fill="white"/>
</clipPath>
</defs>
</svg>
