<svg width="240" height="506" viewBox="0 0 240 506" fill="none" xmlns="http://www.w3.org/2000/svg">
<g opacity="0.1" filter="url(#filter0_f_4249_26180)">
<path d="M26 69.6426L27.7321 70.6426L76.866 -16.46L26 69.6426Z" fill="white"/>
</g>
<rect opacity="0.2" x="39" y="75.002" width="4" height="4" fill="white"/>
<rect opacity="0.5" x="128.586" y="-0.998047" width="2" height="2" transform="rotate(-45 128.586 -0.998047)" fill="white"/>
<rect opacity="0.4" x="193.828" y="6.00195" width="4" height="4" transform="rotate(45 193.828 6.00195)" fill="white"/>
<rect opacity="0.2" x="142.5" y="75.9648" width="4" height="4" transform="rotate(45 142.5 75.9648)" fill="white"/>
<g opacity="0.4" filter="url(#filter1_f_4249_26180)">
<path d="M69.1338 71.1621L70.8658 72.1621L120.5 -15.8065L69.1338 71.1621Z" fill="white"/>
</g>
<g opacity="0.2" filter="url(#filter2_f_4249_26180)">
<path d="M137.134 23.1641L139.732 24.6641L172.933 -35.8417L137.134 23.1641Z" fill="white"/>
</g>
<g opacity="0.1" filter="url(#filter3_f_4249_26180)">
<path d="M26 179.643L27.7321 180.643L76.866 93.54L26 179.643Z" fill="white"/>
</g>
<rect opacity="0.2" x="39" y="185.002" width="4" height="4" fill="white"/>
<rect opacity="0.5" x="92" y="81.1719" width="5" height="5" transform="rotate(45 92 81.1719)" fill="white"/>
<rect opacity="0.5" x="116.535" y="347.002" width="5" height="5" transform="rotate(45 116.535 347.002)" fill="white"/>
<rect opacity="0.5" x="128.586" y="109.002" width="2" height="2" transform="rotate(-45 128.586 109.002)" fill="white"/>
<rect opacity="0.1" x="160" y="97" width="3" height="3" fill="white"/>
<rect opacity="0.4" x="193.828" y="116.002" width="4" height="4" transform="rotate(45 193.828 116.002)" fill="white"/>
<rect opacity="0.2" x="142.5" y="185.965" width="4" height="4" transform="rotate(45 142.5 185.965)" fill="white"/>
<rect opacity="0.4" x="55" y="97.002" width="2" height="2" fill="white"/>
<g opacity="0.4" filter="url(#filter4_f_4249_26180)">
<path d="M78.1338 154.162L79.8658 155.162L129.5 67.1935L78.1338 154.162Z" fill="white"/>
</g>
<rect opacity="0.5" x="12" y="211.172" width="5" height="5" transform="rotate(45 12 211.172)" fill="white"/>
<rect opacity="0.5" x="48.5859" y="239" width="2" height="2" transform="rotate(-45 48.5859 239)" fill="white"/>
<rect opacity="0.1" x="100" y="297" width="3" height="3" fill="white"/>
<rect opacity="0.4" x="113.828" y="246" width="4" height="4" transform="rotate(45 113.828 246)" fill="white"/>
<rect opacity="0.2" x="62.5" y="315.965" width="4" height="4" transform="rotate(45 62.5 315.965)" fill="white"/>
<g opacity="0.4" filter="url(#filter5_f_4249_26180)">
<path d="M-10.8662 311.162L-9.13416 312.162L40.4998 224.194L-10.8662 311.162Z" fill="white"/>
</g>
<g opacity="0.2" filter="url(#filter6_f_4249_26180)">
<path d="M57.1338 263.162L59.7319 264.662L92.9328 204.156L57.1338 263.162Z" fill="white"/>
</g>
<g opacity="0.4" filter="url(#filter7_f_4249_26180)">
<path d="M49.1338 393.162L51.7319 394.662L84.9328 334.156L49.1338 393.162Z" fill="white"/>
</g>
<g opacity="0.2" filter="url(#filter8_f_4249_26180)">
<path d="M107.134 323.162L109.732 324.662L142.933 264.156L107.134 323.162Z" fill="white"/>
</g>
<g opacity="0.05" filter="url(#filter9_f_4249_26180)">
<path d="M21.1338 359.162L23.7319 360.662L76.9328 265.515L21.1338 359.162Z" fill="white"/>
</g>
<g opacity="0.2" filter="url(#filter10_f_4249_26180)">
<path d="M137.134 133.162L139.732 134.662L172.933 74.1564L137.134 133.162Z" fill="white"/>
</g>
<g opacity="0.5" filter="url(#filter11_f_4249_26180)">
<path d="M141.134 229.162L143.732 230.662L196.933 135.515L141.134 229.162Z" fill="white"/>
</g>
<g opacity="0.4" filter="url(#filter12_f_4249_26180)">
<path d="M111.134 409.162L113.732 410.662L166.933 315.515L111.134 409.162Z" fill="white"/>
</g>
<g opacity="0.1" filter="url(#filter13_f_4249_26180)">
<path d="M176 269.643L177.732 270.643L226.866 183.54L176 269.643Z" fill="white"/>
</g>
<rect opacity="0.2" x="189" y="275.002" width="4" height="4" fill="white"/>
<rect opacity="0.5" x="242" y="171.174" width="5" height="5" transform="rotate(45 242 171.174)" fill="white"/>
<rect opacity="0.4" x="205" y="187.002" width="2" height="2" fill="white"/>
<g opacity="0.4" filter="url(#filter14_f_4249_26180)">
<path d="M219.134 271.164L220.866 272.164L270.5 184.195L219.134 271.164Z" fill="white"/>
</g>
<g opacity="0.1" filter="url(#filter15_f_4249_26180)">
<path d="M176 379.643L177.732 380.643L226.866 293.54L176 379.643Z" fill="white"/>
</g>
<rect opacity="0.2" x="189" y="385.002" width="4" height="4" fill="white"/>
<rect opacity="0.5" x="242" y="281.172" width="5" height="5" transform="rotate(45 242 281.172)" fill="white"/>
<rect opacity="0.4" x="205" y="297.002" width="2" height="2" fill="white"/>
<g opacity="0.4" filter="url(#filter16_f_4249_26180)">
<path d="M228.134 354.164L229.866 355.164L279.5 267.195L228.134 354.164Z" fill="white"/>
</g>
<g opacity="0.1" filter="url(#filter17_f_4249_26180)">
<path d="M96 509.643L97.7321 510.643L146.866 423.54L96 509.643Z" fill="white"/>
</g>
<rect opacity="0.5" x="162" y="411.172" width="5" height="5" transform="rotate(45 162 411.172)" fill="white"/>
<rect opacity="0.5" x="198.586" y="439" width="2" height="2" transform="rotate(-45 198.586 439)" fill="white"/>
<rect opacity="0.4" x="125" y="427" width="2" height="2" fill="white"/>
<g opacity="0.4" filter="url(#filter18_f_4249_26180)">
<path d="M139.134 511.162L140.866 512.162L190.5 424.194L139.134 511.162Z" fill="white"/>
</g>
<g opacity="0.2" filter="url(#filter19_f_4249_26180)">
<path d="M207.134 463.162L209.732 464.662L242.933 404.156L207.134 463.162Z" fill="white"/>
</g>
<g opacity="0.4" filter="url(#filter20_f_4249_26180)">
<path d="M-16.8662 537.162L-15.1342 538.162L34.4998 450.194L-16.8662 537.162Z" fill="white"/>
</g>
<g opacity="0.2" filter="url(#filter21_f_4249_26180)">
<path d="M51.1338 489.162L53.7319 490.662L86.9328 430.156L51.1338 489.162Z" fill="white"/>
</g>
<g opacity="0.4" filter="url(#filter22_f_4249_26180)">
<path d="M15.1338 585.162L17.7319 586.662L70.9328 491.515L15.1338 585.162Z" fill="white"/>
</g>
<defs>
<filter id="filter0_f_4249_26180" x="24" y="-18.4609" width="54.8662" height="91.1035" filterUnits="userSpaceOnUse" color-interpolation-filters="sRGB">
<feFlood flood-opacity="0" result="BackgroundImageFix"/>
<feBlend mode="normal" in="SourceGraphic" in2="BackgroundImageFix" result="shape"/>
<feGaussianBlur stdDeviation="1" result="effect1_foregroundBlur_4249_26180"/>
</filter>
<filter id="filter1_f_4249_26180" x="67.1338" y="-17.8066" width="55.3662" height="91.9688" filterUnits="userSpaceOnUse" color-interpolation-filters="sRGB">
<feFlood flood-opacity="0" result="BackgroundImageFix"/>
<feBlend mode="normal" in="SourceGraphic" in2="BackgroundImageFix" result="shape"/>
<feGaussianBlur stdDeviation="1" result="effect1_foregroundBlur_4249_26180"/>
</filter>
<filter id="filter2_f_4249_26180" x="135.134" y="-37.8418" width="39.7988" height="64.5059" filterUnits="userSpaceOnUse" color-interpolation-filters="sRGB">
<feFlood flood-opacity="0" result="BackgroundImageFix"/>
<feBlend mode="normal" in="SourceGraphic" in2="BackgroundImageFix" result="shape"/>
<feGaussianBlur stdDeviation="1" result="effect1_foregroundBlur_4249_26180"/>
</filter>
<filter id="filter3_f_4249_26180" x="24" y="91.5391" width="54.8662" height="91.1035" filterUnits="userSpaceOnUse" color-interpolation-filters="sRGB">
<feFlood flood-opacity="0" result="BackgroundImageFix"/>
<feBlend mode="normal" in="SourceGraphic" in2="BackgroundImageFix" result="shape"/>
<feGaussianBlur stdDeviation="1" result="effect1_foregroundBlur_4249_26180"/>
</filter>
<filter id="filter4_f_4249_26180" x="76.1338" y="65.1934" width="55.3662" height="91.9688" filterUnits="userSpaceOnUse" color-interpolation-filters="sRGB">
<feFlood flood-opacity="0" result="BackgroundImageFix"/>
<feBlend mode="normal" in="SourceGraphic" in2="BackgroundImageFix" result="shape"/>
<feGaussianBlur stdDeviation="1" result="effect1_foregroundBlur_4249_26180"/>
</filter>
<filter id="filter5_f_4249_26180" x="-12.8662" y="222.193" width="55.3662" height="91.9688" filterUnits="userSpaceOnUse" color-interpolation-filters="sRGB">
<feFlood flood-opacity="0" result="BackgroundImageFix"/>
<feBlend mode="normal" in="SourceGraphic" in2="BackgroundImageFix" result="shape"/>
<feGaussianBlur stdDeviation="1" result="effect1_foregroundBlur_4249_26180"/>
</filter>
<filter id="filter6_f_4249_26180" x="55.1338" y="202.156" width="39.7988" height="64.5059" filterUnits="userSpaceOnUse" color-interpolation-filters="sRGB">
<feFlood flood-opacity="0" result="BackgroundImageFix"/>
<feBlend mode="normal" in="SourceGraphic" in2="BackgroundImageFix" result="shape"/>
<feGaussianBlur stdDeviation="1" result="effect1_foregroundBlur_4249_26180"/>
</filter>
<filter id="filter7_f_4249_26180" x="47.1338" y="332.156" width="39.7988" height="64.5059" filterUnits="userSpaceOnUse" color-interpolation-filters="sRGB">
<feFlood flood-opacity="0" result="BackgroundImageFix"/>
<feBlend mode="normal" in="SourceGraphic" in2="BackgroundImageFix" result="shape"/>
<feGaussianBlur stdDeviation="1" result="effect1_foregroundBlur_4249_26180"/>
</filter>
<filter id="filter8_f_4249_26180" x="105.134" y="262.156" width="39.7988" height="64.5059" filterUnits="userSpaceOnUse" color-interpolation-filters="sRGB">
<feFlood flood-opacity="0" result="BackgroundImageFix"/>
<feBlend mode="normal" in="SourceGraphic" in2="BackgroundImageFix" result="shape"/>
<feGaussianBlur stdDeviation="1" result="effect1_foregroundBlur_4249_26180"/>
</filter>
<filter id="filter9_f_4249_26180" x="19.1338" y="263.516" width="59.7988" height="99.1465" filterUnits="userSpaceOnUse" color-interpolation-filters="sRGB">
<feFlood flood-opacity="0" result="BackgroundImageFix"/>
<feBlend mode="normal" in="SourceGraphic" in2="BackgroundImageFix" result="shape"/>
<feGaussianBlur stdDeviation="1" result="effect1_foregroundBlur_4249_26180"/>
</filter>
<filter id="filter10_f_4249_26180" x="135.134" y="72.1562" width="39.7988" height="64.5059" filterUnits="userSpaceOnUse" color-interpolation-filters="sRGB">
<feFlood flood-opacity="0" result="BackgroundImageFix"/>
<feBlend mode="normal" in="SourceGraphic" in2="BackgroundImageFix" result="shape"/>
<feGaussianBlur stdDeviation="1" result="effect1_foregroundBlur_4249_26180"/>
</filter>
<filter id="filter11_f_4249_26180" x="139.134" y="133.516" width="59.7988" height="99.1465" filterUnits="userSpaceOnUse" color-interpolation-filters="sRGB">
<feFlood flood-opacity="0" result="BackgroundImageFix"/>
<feBlend mode="normal" in="SourceGraphic" in2="BackgroundImageFix" result="shape"/>
<feGaussianBlur stdDeviation="1" result="effect1_foregroundBlur_4249_26180"/>
</filter>
<filter id="filter12_f_4249_26180" x="109.134" y="313.516" width="59.7988" height="99.1465" filterUnits="userSpaceOnUse" color-interpolation-filters="sRGB">
<feFlood flood-opacity="0" result="BackgroundImageFix"/>
<feBlend mode="normal" in="SourceGraphic" in2="BackgroundImageFix" result="shape"/>
<feGaussianBlur stdDeviation="1" result="effect1_foregroundBlur_4249_26180"/>
</filter>
<filter id="filter13_f_4249_26180" x="174" y="181.539" width="54.8662" height="91.1035" filterUnits="userSpaceOnUse" color-interpolation-filters="sRGB">
<feFlood flood-opacity="0" result="BackgroundImageFix"/>
<feBlend mode="normal" in="SourceGraphic" in2="BackgroundImageFix" result="shape"/>
<feGaussianBlur stdDeviation="1" result="effect1_foregroundBlur_4249_26180"/>
</filter>
<filter id="filter14_f_4249_26180" x="217.134" y="182.195" width="55.3662" height="91.9688" filterUnits="userSpaceOnUse" color-interpolation-filters="sRGB">
<feFlood flood-opacity="0" result="BackgroundImageFix"/>
<feBlend mode="normal" in="SourceGraphic" in2="BackgroundImageFix" result="shape"/>
<feGaussianBlur stdDeviation="1" result="effect1_foregroundBlur_4249_26180"/>
</filter>
<filter id="filter15_f_4249_26180" x="174" y="291.539" width="54.8662" height="91.1035" filterUnits="userSpaceOnUse" color-interpolation-filters="sRGB">
<feFlood flood-opacity="0" result="BackgroundImageFix"/>
<feBlend mode="normal" in="SourceGraphic" in2="BackgroundImageFix" result="shape"/>
<feGaussianBlur stdDeviation="1" result="effect1_foregroundBlur_4249_26180"/>
</filter>
<filter id="filter16_f_4249_26180" x="226.134" y="265.195" width="55.3662" height="91.9688" filterUnits="userSpaceOnUse" color-interpolation-filters="sRGB">
<feFlood flood-opacity="0" result="BackgroundImageFix"/>
<feBlend mode="normal" in="SourceGraphic" in2="BackgroundImageFix" result="shape"/>
<feGaussianBlur stdDeviation="1" result="effect1_foregroundBlur_4249_26180"/>
</filter>
<filter id="filter17_f_4249_26180" x="94" y="421.539" width="54.8662" height="91.1035" filterUnits="userSpaceOnUse" color-interpolation-filters="sRGB">
<feFlood flood-opacity="0" result="BackgroundImageFix"/>
<feBlend mode="normal" in="SourceGraphic" in2="BackgroundImageFix" result="shape"/>
<feGaussianBlur stdDeviation="1" result="effect1_foregroundBlur_4249_26180"/>
</filter>
<filter id="filter18_f_4249_26180" x="137.134" y="422.193" width="55.3662" height="91.9688" filterUnits="userSpaceOnUse" color-interpolation-filters="sRGB">
<feFlood flood-opacity="0" result="BackgroundImageFix"/>
<feBlend mode="normal" in="SourceGraphic" in2="BackgroundImageFix" result="shape"/>
<feGaussianBlur stdDeviation="1" result="effect1_foregroundBlur_4249_26180"/>
</filter>
<filter id="filter19_f_4249_26180" x="205.134" y="402.156" width="39.7988" height="64.5059" filterUnits="userSpaceOnUse" color-interpolation-filters="sRGB">
<feFlood flood-opacity="0" result="BackgroundImageFix"/>
<feBlend mode="normal" in="SourceGraphic" in2="BackgroundImageFix" result="shape"/>
<feGaussianBlur stdDeviation="1" result="effect1_foregroundBlur_4249_26180"/>
</filter>
<filter id="filter20_f_4249_26180" x="-18.8662" y="448.193" width="55.3662" height="91.9688" filterUnits="userSpaceOnUse" color-interpolation-filters="sRGB">
<feFlood flood-opacity="0" result="BackgroundImageFix"/>
<feBlend mode="normal" in="SourceGraphic" in2="BackgroundImageFix" result="shape"/>
<feGaussianBlur stdDeviation="1" result="effect1_foregroundBlur_4249_26180"/>
</filter>
<filter id="filter21_f_4249_26180" x="49.1338" y="428.156" width="39.7988" height="64.5059" filterUnits="userSpaceOnUse" color-interpolation-filters="sRGB">
<feFlood flood-opacity="0" result="BackgroundImageFix"/>
<feBlend mode="normal" in="SourceGraphic" in2="BackgroundImageFix" result="shape"/>
<feGaussianBlur stdDeviation="1" result="effect1_foregroundBlur_4249_26180"/>
</filter>
<filter id="filter22_f_4249_26180" x="13.1338" y="489.516" width="59.7988" height="99.1465" filterUnits="userSpaceOnUse" color-interpolation-filters="sRGB">
<feFlood flood-opacity="0" result="BackgroundImageFix"/>
<feBlend mode="normal" in="SourceGraphic" in2="BackgroundImageFix" result="shape"/>
<feGaussianBlur stdDeviation="1" result="effect1_foregroundBlur_4249_26180"/>
</filter>
</defs>
</svg>
