<svg width="610" height="282" viewBox="0 0 610 282" fill="none" xmlns="http://www.w3.org/2000/svg">
<g clip-path="url(#clip0_4291_4359)">
<g opacity="0.1" filter="url(#filter0_f_4291_4359)">
<path d="M188 30.2334L189.732 31.2334L238.866 -55.8691L188 30.2334Z" fill="white"/>
</g>
<rect opacity="0.2" x="201" y="35.5928" width="4" height="4" fill="white"/>
<rect opacity="0.5" x="278.535" y="197.593" width="5" height="5" transform="rotate(45 278.535 197.593)" fill="white"/>
<rect opacity="0.2" x="304.5" y="36.5576" width="4" height="4" transform="rotate(45 304.5 36.5576)" fill="white"/>
<g opacity="0.1" filter="url(#filter1_f_4291_4359)">
<path d="M108 160.233L109.732 161.233L158.866 74.1309L108 160.233Z" fill="white"/>
</g>
<rect opacity="0.2" x="121" y="165.593" width="4" height="4" fill="white"/>
<rect opacity="0.5" x="174" y="61.7637" width="5" height="5" transform="rotate(45 174 61.7637)" fill="white"/>
<rect opacity="0.5" x="210.586" y="89.5918" width="2" height="2" transform="rotate(-45 210.586 89.5918)" fill="white"/>
<rect opacity="0.1" x="262" y="147.592" width="3" height="3" fill="white"/>
<rect opacity="0.4" x="275.828" y="96.5918" width="4" height="4" transform="rotate(45 275.828 96.5918)" fill="white"/>
<rect opacity="0.2" x="224.5" y="166.557" width="4" height="4" transform="rotate(45 224.5 166.557)" fill="white"/>
<rect opacity="0.4" x="137" y="77.5918" width="2" height="2" fill="white"/>
<g opacity="0.4" filter="url(#filter2_f_4291_4359)">
<path d="M151.134 161.754L152.866 162.754L202.5 74.7853L151.134 161.754Z" fill="white"/>
</g>
<g opacity="0.2" filter="url(#filter3_f_4291_4359)">
<path d="M219.134 113.755L221.732 115.255L254.933 54.7491L219.134 113.755Z" fill="white"/>
</g>
<g opacity="0.4" filter="url(#filter4_f_4291_4359)">
<path d="M181.134 293.755L183.732 295.255L216.933 234.749L181.134 293.755Z" fill="white"/>
</g>
<g opacity="0.05" filter="url(#filter5_f_4291_4359)">
<path d="M269.134 173.755L271.732 175.255L304.933 114.749L269.134 173.755Z" fill="white"/>
</g>
<g opacity="0.05" filter="url(#filter6_f_4291_4359)">
<path d="M183.134 209.754L185.732 211.254L238.933 116.107L183.134 209.754Z" fill="white"/>
</g>
<g opacity="0.05" filter="url(#filter7_f_4291_4359)">
<path d="M303.134 79.7539L305.732 81.2539L358.933 -13.8929L303.134 79.7539Z" fill="white"/>
</g>
<g opacity="0.4" filter="url(#filter8_f_4291_4359)">
<path d="M223.134 329.754L225.732 331.254L278.933 236.107L223.134 329.754Z" fill="white"/>
</g>
<g opacity="0.05" filter="url(#filter9_f_4291_4359)">
<path d="M338 120.233L339.732 121.233L388.866 34.1309L338 120.233Z" fill="white"/>
</g>
<rect opacity="0.2" x="351" y="125.594" width="4" height="4" fill="white"/>
<rect opacity="0.5" x="404" y="21.7646" width="5" height="5" transform="rotate(45 404 21.7646)" fill="white"/>
<rect opacity="0.5" x="440.586" y="49.5938" width="2" height="2" transform="rotate(-45 440.586 49.5938)" fill="white"/>
<rect opacity="0.1" x="472" y="37.5938" width="3" height="3" fill="white"/>
<rect opacity="0.4" x="505.828" y="56.5928" width="4" height="4" transform="rotate(45 505.828 56.5928)" fill="white"/>
<rect opacity="0.2" x="454.5" y="126.558" width="4" height="4" transform="rotate(45 454.5 126.558)" fill="white"/>
<rect opacity="0.4" x="367" y="37.5938" width="2" height="2" fill="white"/>
<g opacity="0.4" filter="url(#filter10_f_4291_4359)">
<path d="M381.134 121.755L382.866 122.755L432.5 34.7863L381.134 121.755Z" fill="white"/>
</g>
<g opacity="0.2" filter="url(#filter11_f_4291_4359)">
<path d="M449.134 73.7559L451.732 75.2559L484.933 14.7501L449.134 73.7559Z" fill="white"/>
</g>
<g opacity="0.05" filter="url(#filter12_f_4291_4359)">
<path d="M338 230.233L339.732 231.233L388.866 144.131L338 230.233Z" fill="white"/>
</g>
<rect opacity="0.2" x="351" y="235.594" width="4" height="4" fill="white"/>
<rect opacity="0.5" x="404" y="131.764" width="5" height="5" transform="rotate(45 404 131.764)" fill="white"/>
<rect opacity="0.5" x="440.586" y="159.594" width="2" height="2" transform="rotate(-45 440.586 159.594)" fill="white"/>
<rect opacity="0.1" x="472" y="147.592" width="3" height="3" fill="white"/>
<rect opacity="0.4" x="505.828" y="166.593" width="4" height="4" transform="rotate(45 505.828 166.593)" fill="white"/>
<rect opacity="0.2" x="454.5" y="236.558" width="4" height="4" transform="rotate(45 454.5 236.558)" fill="white"/>
<rect opacity="0.4" x="367" y="147.594" width="2" height="2" fill="white"/>
<g opacity="0.05" filter="url(#filter13_f_4291_4359)">
<path d="M390.134 204.755L391.866 205.755L441.5 117.786L390.134 204.755Z" fill="white"/>
</g>
<rect opacity="0.5" x="324" y="261.764" width="5" height="5" transform="rotate(45 324 261.764)" fill="white"/>
<g opacity="0.2" filter="url(#filter14_f_4291_4359)">
<path d="M369.134 313.754L371.732 315.254L404.933 254.748L369.134 313.754Z" fill="white"/>
</g>
<g opacity="0.2" filter="url(#filter15_f_4291_4359)">
<path d="M449.134 183.755L451.732 185.255L484.933 124.749L449.134 183.755Z" fill="white"/>
</g>
<g opacity="0.05" filter="url(#filter16_f_4291_4359)">
<path d="M443.134 289.754L445.732 291.254L498.933 196.107L443.134 289.754Z" fill="white"/>
</g>
<g opacity="0.1" filter="url(#filter17_f_4291_4359)">
<path d="M528 100.233L529.732 101.233L578.866 14.1309L528 100.233Z" fill="white"/>
</g>
<rect opacity="0.2" x="541" y="105.594" width="4" height="4" fill="white"/>
<rect opacity="0.5" x="594" y="1.76465" width="5" height="5" transform="rotate(45 594 1.76465)" fill="white"/>
<rect opacity="0.4" x="557" y="17.5928" width="2" height="2" fill="white"/>
<g opacity="0.4" filter="url(#filter18_f_4291_4359)">
<path d="M571.134 101.755L572.866 102.755L622.5 14.7863L571.134 101.755Z" fill="white"/>
</g>
<g opacity="0.1" filter="url(#filter19_f_4291_4359)">
<path d="M528 210.233L529.732 211.233L578.866 124.131L528 210.233Z" fill="white"/>
</g>
<rect opacity="0.2" x="541" y="215.594" width="4" height="4" fill="white"/>
<rect opacity="0.5" x="594" y="111.764" width="5" height="5" transform="rotate(45 594 111.764)" fill="white"/>
<rect opacity="0.4" x="557" y="127.594" width="2" height="2" fill="white"/>
<g opacity="0.4" filter="url(#filter20_f_4291_4359)">
<path d="M580.134 184.755L581.866 185.755L631.5 97.7863L580.134 184.755Z" fill="white"/>
</g>
<g opacity="0.1" filter="url(#filter21_f_4291_4359)">
<path d="M448 340.233L449.732 341.233L498.866 254.131L448 340.233Z" fill="white"/>
</g>
<rect opacity="0.5" x="514" y="241.764" width="5" height="5" transform="rotate(45 514 241.764)" fill="white"/>
<rect opacity="0.4" x="477" y="257.592" width="2" height="2" fill="white"/>
<g opacity="0.4" filter="url(#filter22_f_4291_4359)">
<path d="M491.134 341.753L492.866 342.753L542.5 254.784L491.134 341.753Z" fill="white"/>
</g>
<g opacity="0.2" filter="url(#filter23_f_4291_4359)">
<path d="M559.134 293.754L561.732 295.254L594.933 234.748L559.134 293.754Z" fill="white"/>
</g>
<rect opacity="0.5" x="30.5859" y="79.5928" width="2" height="2" transform="rotate(-45 30.5859 79.5928)" fill="white"/>
<rect opacity="0.1" x="62" y="67.5928" width="3" height="3" fill="white"/>
<rect opacity="0.4" x="95.8281" y="86.5918" width="4" height="4" transform="rotate(45 95.8281 86.5918)" fill="white"/>
<rect opacity="0.2" x="44.5" y="156.557" width="4" height="4" transform="rotate(45 44.5 156.557)" fill="white"/>
<g opacity="0.4" filter="url(#filter24_f_4291_4359)">
<path d="M-28.8662 151.754L-27.1342 152.754L22.4998 64.7853L-28.8662 151.754Z" fill="white"/>
</g>
<g opacity="0.2" filter="url(#filter25_f_4291_4359)">
<path d="M39.1338 103.759L41.7319 105.259L74.9328 44.753L39.1338 103.759Z" fill="white"/>
</g>
<rect opacity="0.5" x="30.5859" y="189.593" width="2" height="2" transform="rotate(-45 30.5859 189.593)" fill="white"/>
<rect opacity="0.1" x="62" y="177.592" width="3" height="3" fill="white"/>
<rect opacity="0.4" x="95.8281" y="196.592" width="4" height="4" transform="rotate(45 95.8281 196.592)" fill="white"/>
<g opacity="0.4" filter="url(#filter26_f_4291_4359)">
<path d="M-19.8662 234.758L-18.1342 235.758L31.4998 147.789L-19.8662 234.758Z" fill="white"/>
</g>
<g opacity="0.2" filter="url(#filter27_f_4291_4359)">
<path d="M39.1338 213.758L41.7319 215.258L74.9328 154.752L39.1338 213.758Z" fill="white"/>
</g>
<g opacity="0.5" filter="url(#filter28_f_4291_4359)">
<path d="M43.1338 309.757L45.7319 311.257L98.9328 216.11L43.1338 309.757Z" fill="white"/>
</g>
<rect opacity="0.5" x="144" y="251.768" width="5" height="5" transform="rotate(45 144 251.768)" fill="white"/>
<g opacity="0.2" filter="url(#filter29_f_4291_4359)">
<path d="M189.134 303.759L191.732 305.259L224.933 244.753L189.134 303.759Z" fill="white"/>
</g>
</g>
<defs>
<filter id="filter0_f_4291_4359" x="186" y="-57.8691" width="54.8662" height="91.1025" filterUnits="userSpaceOnUse" color-interpolation-filters="sRGB">
<feFlood flood-opacity="0" result="BackgroundImageFix"/>
<feBlend mode="normal" in="SourceGraphic" in2="BackgroundImageFix" result="shape"/>
<feGaussianBlur stdDeviation="1" result="effect1_foregroundBlur_4291_4359"/>
</filter>
<filter id="filter1_f_4291_4359" x="106" y="72.1309" width="54.8662" height="91.1025" filterUnits="userSpaceOnUse" color-interpolation-filters="sRGB">
<feFlood flood-opacity="0" result="BackgroundImageFix"/>
<feBlend mode="normal" in="SourceGraphic" in2="BackgroundImageFix" result="shape"/>
<feGaussianBlur stdDeviation="1" result="effect1_foregroundBlur_4291_4359"/>
</filter>
<filter id="filter2_f_4291_4359" x="149.134" y="72.7852" width="55.3662" height="91.9688" filterUnits="userSpaceOnUse" color-interpolation-filters="sRGB">
<feFlood flood-opacity="0" result="BackgroundImageFix"/>
<feBlend mode="normal" in="SourceGraphic" in2="BackgroundImageFix" result="shape"/>
<feGaussianBlur stdDeviation="1" result="effect1_foregroundBlur_4291_4359"/>
</filter>
<filter id="filter3_f_4291_4359" x="217.134" y="52.749" width="39.7988" height="64.5059" filterUnits="userSpaceOnUse" color-interpolation-filters="sRGB">
<feFlood flood-opacity="0" result="BackgroundImageFix"/>
<feBlend mode="normal" in="SourceGraphic" in2="BackgroundImageFix" result="shape"/>
<feGaussianBlur stdDeviation="1" result="effect1_foregroundBlur_4291_4359"/>
</filter>
<filter id="filter4_f_4291_4359" x="179.134" y="232.749" width="39.7988" height="64.5059" filterUnits="userSpaceOnUse" color-interpolation-filters="sRGB">
<feFlood flood-opacity="0" result="BackgroundImageFix"/>
<feBlend mode="normal" in="SourceGraphic" in2="BackgroundImageFix" result="shape"/>
<feGaussianBlur stdDeviation="1" result="effect1_foregroundBlur_4291_4359"/>
</filter>
<filter id="filter5_f_4291_4359" x="267.134" y="112.749" width="39.7988" height="64.5059" filterUnits="userSpaceOnUse" color-interpolation-filters="sRGB">
<feFlood flood-opacity="0" result="BackgroundImageFix"/>
<feBlend mode="normal" in="SourceGraphic" in2="BackgroundImageFix" result="shape"/>
<feGaussianBlur stdDeviation="1" result="effect1_foregroundBlur_4291_4359"/>
</filter>
<filter id="filter6_f_4291_4359" x="181.134" y="114.107" width="59.7988" height="99.1465" filterUnits="userSpaceOnUse" color-interpolation-filters="sRGB">
<feFlood flood-opacity="0" result="BackgroundImageFix"/>
<feBlend mode="normal" in="SourceGraphic" in2="BackgroundImageFix" result="shape"/>
<feGaussianBlur stdDeviation="1" result="effect1_foregroundBlur_4291_4359"/>
</filter>
<filter id="filter7_f_4291_4359" x="301.134" y="-15.8926" width="59.7988" height="99.1465" filterUnits="userSpaceOnUse" color-interpolation-filters="sRGB">
<feFlood flood-opacity="0" result="BackgroundImageFix"/>
<feBlend mode="normal" in="SourceGraphic" in2="BackgroundImageFix" result="shape"/>
<feGaussianBlur stdDeviation="1" result="effect1_foregroundBlur_4291_4359"/>
</filter>
<filter id="filter8_f_4291_4359" x="221.134" y="234.107" width="59.7988" height="99.1465" filterUnits="userSpaceOnUse" color-interpolation-filters="sRGB">
<feFlood flood-opacity="0" result="BackgroundImageFix"/>
<feBlend mode="normal" in="SourceGraphic" in2="BackgroundImageFix" result="shape"/>
<feGaussianBlur stdDeviation="1" result="effect1_foregroundBlur_4291_4359"/>
</filter>
<filter id="filter9_f_4291_4359" x="336" y="32.1309" width="54.8662" height="91.1025" filterUnits="userSpaceOnUse" color-interpolation-filters="sRGB">
<feFlood flood-opacity="0" result="BackgroundImageFix"/>
<feBlend mode="normal" in="SourceGraphic" in2="BackgroundImageFix" result="shape"/>
<feGaussianBlur stdDeviation="1" result="effect1_foregroundBlur_4291_4359"/>
</filter>
<filter id="filter10_f_4291_4359" x="379.134" y="32.7861" width="55.3662" height="91.9688" filterUnits="userSpaceOnUse" color-interpolation-filters="sRGB">
<feFlood flood-opacity="0" result="BackgroundImageFix"/>
<feBlend mode="normal" in="SourceGraphic" in2="BackgroundImageFix" result="shape"/>
<feGaussianBlur stdDeviation="1" result="effect1_foregroundBlur_4291_4359"/>
</filter>
<filter id="filter11_f_4291_4359" x="447.134" y="12.75" width="39.7988" height="64.5059" filterUnits="userSpaceOnUse" color-interpolation-filters="sRGB">
<feFlood flood-opacity="0" result="BackgroundImageFix"/>
<feBlend mode="normal" in="SourceGraphic" in2="BackgroundImageFix" result="shape"/>
<feGaussianBlur stdDeviation="1" result="effect1_foregroundBlur_4291_4359"/>
</filter>
<filter id="filter12_f_4291_4359" x="336" y="142.131" width="54.8662" height="91.1025" filterUnits="userSpaceOnUse" color-interpolation-filters="sRGB">
<feFlood flood-opacity="0" result="BackgroundImageFix"/>
<feBlend mode="normal" in="SourceGraphic" in2="BackgroundImageFix" result="shape"/>
<feGaussianBlur stdDeviation="1" result="effect1_foregroundBlur_4291_4359"/>
</filter>
<filter id="filter13_f_4291_4359" x="388.134" y="115.786" width="55.3662" height="91.9688" filterUnits="userSpaceOnUse" color-interpolation-filters="sRGB">
<feFlood flood-opacity="0" result="BackgroundImageFix"/>
<feBlend mode="normal" in="SourceGraphic" in2="BackgroundImageFix" result="shape"/>
<feGaussianBlur stdDeviation="1" result="effect1_foregroundBlur_4291_4359"/>
</filter>
<filter id="filter14_f_4291_4359" x="367.134" y="252.748" width="39.7988" height="64.5059" filterUnits="userSpaceOnUse" color-interpolation-filters="sRGB">
<feFlood flood-opacity="0" result="BackgroundImageFix"/>
<feBlend mode="normal" in="SourceGraphic" in2="BackgroundImageFix" result="shape"/>
<feGaussianBlur stdDeviation="1" result="effect1_foregroundBlur_4291_4359"/>
</filter>
<filter id="filter15_f_4291_4359" x="447.134" y="122.749" width="39.7988" height="64.5059" filterUnits="userSpaceOnUse" color-interpolation-filters="sRGB">
<feFlood flood-opacity="0" result="BackgroundImageFix"/>
<feBlend mode="normal" in="SourceGraphic" in2="BackgroundImageFix" result="shape"/>
<feGaussianBlur stdDeviation="1" result="effect1_foregroundBlur_4291_4359"/>
</filter>
<filter id="filter16_f_4291_4359" x="441.134" y="194.107" width="59.7988" height="99.1465" filterUnits="userSpaceOnUse" color-interpolation-filters="sRGB">
<feFlood flood-opacity="0" result="BackgroundImageFix"/>
<feBlend mode="normal" in="SourceGraphic" in2="BackgroundImageFix" result="shape"/>
<feGaussianBlur stdDeviation="1" result="effect1_foregroundBlur_4291_4359"/>
</filter>
<filter id="filter17_f_4291_4359" x="526" y="12.1309" width="54.8662" height="91.1025" filterUnits="userSpaceOnUse" color-interpolation-filters="sRGB">
<feFlood flood-opacity="0" result="BackgroundImageFix"/>
<feBlend mode="normal" in="SourceGraphic" in2="BackgroundImageFix" result="shape"/>
<feGaussianBlur stdDeviation="1" result="effect1_foregroundBlur_4291_4359"/>
</filter>
<filter id="filter18_f_4291_4359" x="569.134" y="12.7861" width="55.3662" height="91.9688" filterUnits="userSpaceOnUse" color-interpolation-filters="sRGB">
<feFlood flood-opacity="0" result="BackgroundImageFix"/>
<feBlend mode="normal" in="SourceGraphic" in2="BackgroundImageFix" result="shape"/>
<feGaussianBlur stdDeviation="1" result="effect1_foregroundBlur_4291_4359"/>
</filter>
<filter id="filter19_f_4291_4359" x="526" y="122.131" width="54.8662" height="91.1025" filterUnits="userSpaceOnUse" color-interpolation-filters="sRGB">
<feFlood flood-opacity="0" result="BackgroundImageFix"/>
<feBlend mode="normal" in="SourceGraphic" in2="BackgroundImageFix" result="shape"/>
<feGaussianBlur stdDeviation="1" result="effect1_foregroundBlur_4291_4359"/>
</filter>
<filter id="filter20_f_4291_4359" x="578.134" y="95.7861" width="55.3662" height="91.9688" filterUnits="userSpaceOnUse" color-interpolation-filters="sRGB">
<feFlood flood-opacity="0" result="BackgroundImageFix"/>
<feBlend mode="normal" in="SourceGraphic" in2="BackgroundImageFix" result="shape"/>
<feGaussianBlur stdDeviation="1" result="effect1_foregroundBlur_4291_4359"/>
</filter>
<filter id="filter21_f_4291_4359" x="446" y="252.131" width="54.8662" height="91.1025" filterUnits="userSpaceOnUse" color-interpolation-filters="sRGB">
<feFlood flood-opacity="0" result="BackgroundImageFix"/>
<feBlend mode="normal" in="SourceGraphic" in2="BackgroundImageFix" result="shape"/>
<feGaussianBlur stdDeviation="1" result="effect1_foregroundBlur_4291_4359"/>
</filter>
<filter id="filter22_f_4291_4359" x="489.134" y="252.784" width="55.3662" height="91.9688" filterUnits="userSpaceOnUse" color-interpolation-filters="sRGB">
<feFlood flood-opacity="0" result="BackgroundImageFix"/>
<feBlend mode="normal" in="SourceGraphic" in2="BackgroundImageFix" result="shape"/>
<feGaussianBlur stdDeviation="1" result="effect1_foregroundBlur_4291_4359"/>
</filter>
<filter id="filter23_f_4291_4359" x="557.134" y="232.748" width="39.7988" height="64.5059" filterUnits="userSpaceOnUse" color-interpolation-filters="sRGB">
<feFlood flood-opacity="0" result="BackgroundImageFix"/>
<feBlend mode="normal" in="SourceGraphic" in2="BackgroundImageFix" result="shape"/>
<feGaussianBlur stdDeviation="1" result="effect1_foregroundBlur_4291_4359"/>
</filter>
<filter id="filter24_f_4291_4359" x="-30.8662" y="62.7852" width="55.3662" height="91.9688" filterUnits="userSpaceOnUse" color-interpolation-filters="sRGB">
<feFlood flood-opacity="0" result="BackgroundImageFix"/>
<feBlend mode="normal" in="SourceGraphic" in2="BackgroundImageFix" result="shape"/>
<feGaussianBlur stdDeviation="1" result="effect1_foregroundBlur_4291_4359"/>
</filter>
<filter id="filter25_f_4291_4359" x="37.1338" y="42.7529" width="39.7988" height="64.5059" filterUnits="userSpaceOnUse" color-interpolation-filters="sRGB">
<feFlood flood-opacity="0" result="BackgroundImageFix"/>
<feBlend mode="normal" in="SourceGraphic" in2="BackgroundImageFix" result="shape"/>
<feGaussianBlur stdDeviation="1" result="effect1_foregroundBlur_4291_4359"/>
</filter>
<filter id="filter26_f_4291_4359" x="-21.8662" y="145.789" width="55.3662" height="91.9688" filterUnits="userSpaceOnUse" color-interpolation-filters="sRGB">
<feFlood flood-opacity="0" result="BackgroundImageFix"/>
<feBlend mode="normal" in="SourceGraphic" in2="BackgroundImageFix" result="shape"/>
<feGaussianBlur stdDeviation="1" result="effect1_foregroundBlur_4291_4359"/>
</filter>
<filter id="filter27_f_4291_4359" x="37.1338" y="152.752" width="39.7988" height="64.5059" filterUnits="userSpaceOnUse" color-interpolation-filters="sRGB">
<feFlood flood-opacity="0" result="BackgroundImageFix"/>
<feBlend mode="normal" in="SourceGraphic" in2="BackgroundImageFix" result="shape"/>
<feGaussianBlur stdDeviation="1" result="effect1_foregroundBlur_4291_4359"/>
</filter>
<filter id="filter28_f_4291_4359" x="41.1338" y="214.11" width="59.7988" height="99.1465" filterUnits="userSpaceOnUse" color-interpolation-filters="sRGB">
<feFlood flood-opacity="0" result="BackgroundImageFix"/>
<feBlend mode="normal" in="SourceGraphic" in2="BackgroundImageFix" result="shape"/>
<feGaussianBlur stdDeviation="1" result="effect1_foregroundBlur_4291_4359"/>
</filter>
<filter id="filter29_f_4291_4359" x="187.134" y="242.753" width="39.7988" height="64.5059" filterUnits="userSpaceOnUse" color-interpolation-filters="sRGB">
<feFlood flood-opacity="0" result="BackgroundImageFix"/>
<feBlend mode="normal" in="SourceGraphic" in2="BackgroundImageFix" result="shape"/>
<feGaussianBlur stdDeviation="1" result="effect1_foregroundBlur_4291_4359"/>
</filter>
<clipPath id="clip0_4291_4359">
<rect width="610" height="282" fill="white"/>
</clipPath>
</defs>
</svg>
