<svg xmlns="http://www.w3.org/2000/svg" viewBox="0 0 14 20">
    <g clip-path="url(#clip0_3025_18238)">
        <path
            d="M13.6663 13.0307C13.6631 14.8785 12.9603 16.6498 11.7118 17.9569C10.4633 19.264 8.77063 20.0005 7.00427 20.0053C5.23614 20.0036 3.54084 19.2684 2.29021 17.9609C1.03957 16.6534 0.335711 14.8804 0.333008 13.0307L0.333008 1.58932L3.37153 0V13.0307C3.37125 13.5294 3.4651 14.0232 3.64768 14.4839C3.83026 14.9445 4.09798 15.363 4.43549 15.7151C4.77299 16.0673 5.17364 16.3463 5.61445 16.5362C6.05527 16.726 6.52757 16.8229 7.00427 16.8214C7.96501 16.8191 8.88585 16.4192 9.56558 15.7089C10.2453 14.9986 10.6287 14.0358 10.6319 13.0307C10.6319 12.0237 10.2499 11.0579 9.56971 10.3454C8.88954 9.63286 7.96685 9.23186 7.00427 9.23044H4.12605L5.64225 6.0518H7.00427C8.77209 6.05407 10.4667 6.79038 11.7159 8.09896C12.9651 9.40754 13.6666 11.1814 13.6663 13.0307Z"
        />
    </g>
    <defs>
        <clipPath id="clip0_3025_18238">
            <rect width="13.3333" height="20" fill="white" transform="translate(0.333008)" />
        </clipPath>
    </defs>
</svg>