<svg xmlns="http://www.w3.org/2000/svg" width="54" height="16" viewBox="0 0 54 16">
  <path
    d="M10.99 10.4218C10.9874 11.8996 10.4081 13.3163 9.379 14.3617C8.34989 15.4071 6.95474 15.9962 5.4988 16C4.04142 15.9986 2.64407 15.4106 1.61323 14.3649C0.582387 13.3192 0.0022278 11.9011 0 10.4218L0 1.27112L2.50451 0V10.4218C2.50428 10.8206 2.58164 11.2156 2.73213 11.584C2.88262 11.9524 3.10329 12.2871 3.38148 12.5688C3.65967 12.8504 3.98991 13.0736 4.35325 13.2254C4.71659 13.3772 5.10588 13.4547 5.4988 13.4535C6.2907 13.4517 7.0497 13.1318 7.60997 12.5637C8.17024 11.9957 8.48623 11.2256 8.4889 10.4218C8.4889 9.61642 8.174 8.84399 7.61337 8.27411C7.05274 7.70423 6.29221 7.38351 5.4988 7.38238H3.12642L4.37615 4.84015H5.4988C6.95593 4.84196 8.35276 5.43085 9.3824 6.47744C10.412 7.52403 10.9903 8.9427 10.99 10.4218Z"
  />
  <path
    d="M17.6368 4.84961C16.5518 4.84995 15.4912 5.17688 14.5892 5.78907C13.6872 6.40126 12.9842 7.27121 12.5693 8.28891C12.1544 9.30661 12.0461 10.4263 12.2581 11.5065C12.4701 12.5867 12.9929 13.5788 13.7604 14.3574C14.5279 15.136 15.5056 15.666 16.5699 15.8806C17.6342 16.0951 18.7372 15.9845 19.7396 15.5627C20.7419 15.1409 21.5985 14.4269 22.2011 13.5109C22.8036 12.5949 23.125 11.5181 23.1247 10.4167C23.1245 9.68541 22.9824 8.96131 22.7065 8.28576C22.4305 7.6102 22.0262 6.99642 21.5167 6.47947C21.0071 5.96252 20.4021 5.55251 19.7364 5.27286C19.0707 4.9932 18.3573 4.84939 17.6368 4.84961ZM17.6368 13.4553C17.0449 13.4558 16.4661 13.2781 15.9736 12.9446C15.4812 12.6112 15.0972 12.137 14.8703 11.582C14.6434 11.0271 14.5837 10.4162 14.6988 9.82684C14.814 9.23744 15.0987 8.69593 15.517 8.27081C15.9354 7.84569 16.4685 7.55606 17.049 7.43854C17.6296 7.32103 18.2314 7.38091 18.7784 7.61062C19.3254 7.84033 19.793 8.22955 20.122 8.72904C20.451 9.22852 20.6268 9.81585 20.6269 10.4167C20.6263 11.2218 20.3111 11.9938 19.7506 12.5633C19.1901 13.1329 18.43 13.4537 17.6368 13.4553Z"
  />
  <path
    d="M29.7702 4.84961C28.6853 4.85063 27.625 5.17814 26.7234 5.79074C25.8219 6.40334 25.1195 7.27352 24.7051 8.29128C24.2907 9.30904 24.1828 10.4287 24.3952 11.5086C24.6076 12.5886 25.1307 13.5804 25.8983 14.3586C26.6659 15.1368 27.6436 15.6666 28.7078 15.8808C29.772 16.0951 30.8749 15.9843 31.877 15.5624C32.8792 15.1405 33.7356 14.4264 34.338 13.5105C34.9404 12.5946 35.2618 11.518 35.2614 10.4167C35.2613 9.6851 35.1192 8.96066 34.8431 8.28484C34.567 7.60901 34.1624 6.99504 33.6524 6.47801C33.1425 5.96099 32.5371 5.55106 31.871 5.27165C31.2048 4.99224 30.491 4.84883 29.7702 4.84961ZM29.7702 13.4553C29.1784 13.4551 28.5999 13.2768 28.1079 12.943C27.6159 12.6091 27.2325 12.1347 27.0061 11.5797C26.7797 11.0246 26.7205 10.4139 26.836 9.82474C26.9515 9.23557 27.2365 8.69438 27.6549 8.2696C28.0734 7.84483 28.6066 7.55553 29.187 7.43829C29.7674 7.32106 30.3691 7.38114 30.9159 7.61095C31.4627 7.84076 31.9301 8.22998 32.259 8.72939C32.5879 9.22881 32.7635 9.816 32.7637 10.4167C32.764 10.8158 32.6868 11.2111 32.5365 11.5799C32.3861 11.9487 32.1657 12.2838 31.8876 12.5661C31.6096 12.8483 31.2795 13.0721 30.9161 13.2247C30.5528 13.3772 30.1634 13.4556 29.7702 13.4553Z"
  />
  <path
    d="M46.3377 12.5712C46.3355 13.4751 45.9805 14.3413 45.3505 14.9801C44.7206 15.6189 43.8669 15.9783 42.9765 15.9797H36.5932V15.9575L37.8168 13.4742H42.9765C43.0929 13.4742 43.2083 13.4509 43.3159 13.4056C43.4235 13.3604 43.5213 13.2941 43.6037 13.2105C43.686 13.1269 43.7514 13.0276 43.7959 12.9184C43.8405 12.8091 43.8635 12.6921 43.8635 12.5738C43.8635 12.4556 43.8405 12.3385 43.7959 12.2293C43.7514 12.12 43.686 12.0208 43.6037 11.9372C43.5213 11.8535 43.4235 11.7872 43.3159 11.742C43.2083 11.6967 43.0929 11.6734 42.9765 11.6734H39.7734C38.8922 11.6593 38.0518 11.294 37.4335 10.6564C36.8153 10.0188 36.4688 9.16006 36.4688 8.26543C36.4688 7.3708 36.8153 6.51204 37.4335 5.87446C38.0518 5.23687 38.8922 4.87158 39.7734 4.85742H45.7999L44.5662 7.3595H39.7692C39.5335 7.3595 39.3075 7.45454 39.1408 7.62372C38.9742 7.79289 38.8805 8.02234 38.8805 8.26159C38.8805 8.50083 38.9742 8.73028 39.1408 8.89945C39.3075 9.06863 39.5335 9.16367 39.7692 9.16367H42.9722C43.8633 9.16389 44.7179 9.5227 45.3488 10.1615C45.9796 10.8002 46.3352 11.6668 46.3377 12.5712Z"
  />
  <path
    d="M53.2813 7.38665V4.85638H49.9992V1.26855L47.498 0V10.4158C47.5003 11.8954 48.0803 13.3138 49.1111 14.3601C50.1418 15.4064 51.5392 15.9952 52.9968 15.9974H54.0008V13.4518H52.9968C52.6036 13.4528 52.2141 13.375 51.8506 13.2228C51.4871 13.0706 51.1567 12.8471 50.8785 12.565C50.6003 12.283 50.3797 11.9479 50.2294 11.5791C50.0791 11.2103 50.002 10.8149 50.0026 10.4158V7.38665H53.2813Z"
  />
</svg>