<svg width="18" height="11" viewBox="0 0 18 11" fill="none" xmlns="http://www.w3.org/2000/svg">
<path fill-rule="evenodd" clip-rule="evenodd" d="M7.93688 0.916071C8.22938 0.637499 8.61488 0.498927 9.00188 0.500323C9.38738 0.498927 9.77288 0.637499 10.0654 0.916071C10.0714 0.921785 10.1299 0.981785 10.1359 0.987499L17.5624 8.06321C18.1459 8.61893 18.1459 9.5275 17.5624 10.0832C16.9789 10.6389 16.0249 10.6389 15.4414 10.0832L9.00188 3.94893L2.56087 10.0832C1.97738 10.6389 1.02337 10.6389 0.439875 10.0832C-0.143625 9.5275 -0.143625 8.61893 0.439875 8.06321L7.85588 1.00178C7.86188 0.996071 7.93088 0.921784 7.93688 0.916071Z" fill="black"/>
</svg>
