<svg width="16" height="16" viewBox="0 0 16 16" xmlns="http://www.w3.org/2000/svg">
    <g id="20/crown">
        <path id="body" fill-rule="evenodd" clip-rule="evenodd"
            d="M8.53055 1.87008C8.3899 1.72942 8.19914 1.6504 8.00022 1.65039C7.80131 1.65038 7.61054 1.72939 7.46988 1.87004L5.26426 4.0755L3.15536 2.94003C2.92293 2.81488 2.64183 2.82114 2.4152 2.95651C2.18858 3.09188 2.0498 3.33642 2.0498 3.60039V7.60039C2.0498 9.41312 2.2408 11.1281 3.13957 12.3863C4.08408 13.7086 5.66789 14.3504 8.0002 14.3504C10.3325 14.3504 11.9162 13.7086 12.8605 12.3863C13.759 11.1281 13.9498 9.41304 13.9498 7.60039V3.60039C13.9498 3.33641 13.811 3.09186 13.5844 2.9565C13.3577 2.82113 13.0766 2.81489 12.8442 2.94005L10.7358 4.07546L8.53055 1.87008ZM5.93031 5.53074L8.00015 3.46105L10.0696 5.5307C10.3039 5.76492 10.664 5.81778 10.9556 5.66073L12.4498 4.8561V7.60039C12.4498 8.19419 12.4268 8.73253 12.3739 9.2176C12.3614 9.20843 12.3487 9.19925 12.3358 9.19009C11.4888 8.58509 10.13 8.05039 7.9999 8.05039C5.86981 8.05039 4.51097 8.58509 3.66397 9.19009C3.6511 9.19929 3.63836 9.20849 3.62575 9.2177C3.57288 8.7326 3.5498 8.19422 3.5498 7.60039V4.85601L5.04445 5.66076C5.33605 5.81776 5.69612 5.76492 5.93031 5.53074ZM4.01907 10.8958C4.11517 11.1237 4.22821 11.3298 4.36014 11.5144C4.91572 12.2922 5.93211 12.8504 8.0002 12.8504C10.0683 12.8504 11.0844 12.2922 11.6398 11.5145C11.7717 11.3298 11.8847 11.1238 11.9808 10.8958C11.8825 10.7688 11.7193 10.5931 11.464 10.4107C10.911 10.0157 9.86981 9.55039 7.9999 9.55039C6.12999 9.55039 5.08883 10.0157 4.53583 10.4107C4.28051 10.5931 4.11733 10.7688 4.01907 10.8958Z"
            fill="#57606A" />
    </g>
</svg>