<svg
    xmlns="http://www.w3.org/2000/svg"
    width="32"
    height="43"
    viewBox="0 0 32 43"
    fill="none"
>
    <path
        fill-rule="evenodd"
        clip-rule="evenodd"
        d="M1.65983 41.6732C1.70206 41.9461 1.51506 42.2015 1.24217 42.2437C0.969272 42.286 0.713816 42.099 0.671589 41.8261C0.0338199 37.7044 1.93207 33.4481 4.73014 29.9116C7.53459 26.3669 11.3121 23.4546 14.6067 22.0128C14.7754 21.939 14.9818 21.8435 15.2188 21.7338L15.219 21.7338L15.2676 21.7113C15.5392 19.3469 16.5176 16.3763 18.4807 12.7167C21.1148 7.80594 24.9565 4.66208 29.3379 1.71463C28.8004 1.72096 28.1916 1.70772 27.6342 1.64712C27.3597 1.61728 27.1613 1.37054 27.1912 1.09601C27.221 0.821491 27.4677 0.623138 27.7423 0.652978C28.4104 0.725617 29.1834 0.724562 29.7994 0.703847C30.1053 0.693562 30.3681 0.678598 30.5541 0.666231C30.647 0.66005 30.7206 0.654532 30.7706 0.650589L30.8273 0.645981L30.8413 0.644781L30.8446 0.644495L30.8453 0.644433L30.8453 0.644428C31.0355 0.627452 31.2188 0.720284 31.3176 0.883668C31.4164 1.04702 31.4136 1.25237 31.3103 1.41292L31.3102 1.41307L31.3095 1.41425L31.304 1.42286C31.2989 1.43104 31.2909 1.44401 31.2803 1.46149C31.2591 1.49645 31.2278 1.5493 31.1893 1.61762C31.1121 1.7545 31.007 1.95215 30.8973 2.19139C30.6752 2.6756 30.4465 3.30414 30.3782 3.93194C30.3484 4.20646 30.1017 4.40481 29.8271 4.37497C29.5526 4.34513 29.3543 4.09838 29.3841 3.82386C29.4254 3.44409 29.5122 3.07359 29.6186 2.73193C25.4032 5.59233 21.8274 8.59297 19.3619 13.1894C17.5993 16.4755 16.6837 19.1263 16.3446 21.2238C17.2767 20.8165 18.4013 20.3727 19.521 20.1009C20.5219 19.8578 21.571 19.7372 22.515 19.9239C23.4808 20.1148 24.3335 20.6289 24.8811 21.6212C25.5343 22.805 25.7649 23.9249 25.653 24.9342C25.5411 25.944 25.0902 26.8066 24.4425 27.4789C23.1597 28.8103 21.0942 29.4106 19.2397 29.0025C17.3418 28.585 15.6943 27.1196 15.2851 24.4182C15.2117 23.934 15.1782 23.4111 15.1893 22.8481C15.1259 22.8767 15.0653 22.9037 15.0076 22.9289C11.8787 24.2982 8.22831 27.1018 5.51437 30.532C2.79407 33.9703 1.08339 37.9478 1.65983 41.6732ZM19.7569 21.0726C18.4806 21.3825 17.2074 21.9262 16.2106 22.3794C16.1635 23.0823 16.1893 23.7106 16.2738 24.2684C16.6223 26.569 17.9691 27.6991 19.4546 28.0259C20.9835 28.3623 22.6907 27.8559 23.7224 26.7851C24.2319 26.2562 24.5738 25.5938 24.6591 24.824C24.7445 24.0539 24.5769 23.1397 24.0056 22.1044C23.6202 21.4061 23.0398 21.047 22.3211 20.9049C21.5807 20.7585 20.694 20.8451 19.7569 21.0726Z"
        fill="currentColor"
    />
</svg>