<svg width="132" height="32" viewBox="0 0 132 32" fill="none" xmlns="http://www.w3.org/2000/svg">
<g clip-path="url(#clip0_3_2)">
<path d="M42.9572 23.9687C41.0641 23.9687 39.4929 23.5447 38.2472 22.7002C36.9979 21.8522 36.2316 20.5732 35.9517 18.8597L38.8526 18.1658C39.0135 18.9928 39.2865 19.6481 39.6679 20.1317C40.0493 20.6153 40.5287 20.9587 41.1026 21.1584C41.6765 21.3616 42.2959 21.4598 42.9607 21.4598C43.9475 21.4598 44.7069 21.267 45.2422 20.8851C45.7741 20.5031 46.0436 20.009 46.0436 19.4028C46.0436 18.7966 45.7916 18.3551 45.2877 18.0712C44.7838 17.7874 44.0385 17.5561 43.0517 17.3774L42.0264 17.1952C41.0186 17.013 40.1018 16.7502 39.2795 16.4103C38.4536 16.0669 37.7993 15.5938 37.3164 14.9876C36.8335 14.3814 36.592 13.6069 36.592 12.6608C36.592 11.2486 37.1169 10.1553 38.1632 9.38091C39.2095 8.60649 40.5987 8.21753 42.3308 8.21753C44.063 8.21753 45.3752 8.59598 46.453 9.35288C47.5308 10.1098 48.2306 11.133 48.5526 12.4225L45.6552 13.239C45.4732 12.3314 45.0918 11.6937 44.5074 11.3187C43.923 10.9473 43.1987 10.758 42.3343 10.758C41.47 10.758 40.8227 10.9157 40.3398 11.2276C39.8569 11.5395 39.6154 11.9775 39.6154 12.5417C39.6154 13.1479 39.8534 13.5894 40.3258 13.8732C40.7982 14.1571 41.4385 14.3673 42.2434 14.5075L43.3002 14.6897C44.3674 14.8719 45.3437 15.1242 46.229 15.4466C47.1144 15.769 47.8142 16.2315 48.3286 16.8378C48.843 17.444 49.0985 18.2499 49.0985 19.2556C49.0985 20.7484 48.5456 21.9083 47.4363 22.7318C46.327 23.5587 44.8398 23.9722 42.9677 23.9722L42.9572 23.9687Z"/>
<path d="M51.4293 23.5443V3.70728H54.5401V10.7541H55.023C55.2225 10.3722 55.5094 9.99724 55.8838 9.63632C56.2548 9.27188 56.7482 8.97753 57.364 8.74275C57.9764 8.51148 58.7567 8.39585 59.7051 8.39585C60.8318 8.39585 61.8326 8.64813 62.7109 9.15273C63.5858 9.65733 64.2751 10.3687 64.779 11.2833C65.2829 12.2014 65.5349 13.3052 65.5349 14.5947V23.5443H62.424V14.8365C62.424 13.547 62.1021 12.5938 61.4582 11.9806C60.8143 11.3674 59.929 11.059 58.8022 11.059C57.5145 11.059 56.4822 11.483 55.7054 12.3275C54.9285 13.1755 54.5436 14.4055 54.5436 16.0174V23.5478H51.4328L51.4293 23.5443Z"/>
<path d="M74.1915 23.8138C73.0648 23.8138 72.057 23.5615 71.1717 23.0569C70.2863 22.5523 69.59 21.8375 69.0896 20.9089C68.5857 19.9803 68.3337 18.8729 68.3337 17.5834V8.63379H71.4446V17.3732C71.4446 18.6627 71.7665 19.6158 72.4104 20.2326C73.0543 20.8493 73.9501 21.1542 75.0978 21.1542C76.3646 21.1542 77.3864 20.7266 78.1632 19.8681C78.9366 19.0131 79.325 17.7761 79.325 16.1642V8.63379H82.4358V23.544H79.3845V21.3048H78.9016C78.6181 21.9111 78.1177 22.4787 77.3899 23.0149C76.6655 23.5475 75.5982 23.8173 74.188 23.8173L74.1915 23.8138Z"/>
<path d="M90.1799 23.5443C89.2736 23.5443 88.5528 23.271 88.0209 22.7279C87.489 22.1847 87.2195 21.4594 87.2195 20.5518V11.2693H84.4201V8.63763H87.2195V3.70728H90.3304V8.63763H93.8332V11.2693H90.3304V20.0086C90.3304 20.6149 90.6138 20.9162 91.1772 20.9162H94.2881V23.5478H90.1799V23.5443ZM99.9639 23.5443C99.0576 23.5443 98.3332 23.271 97.7909 22.7279C97.2485 22.1847 96.9755 21.4594 96.9755 20.5518V11.2693H93.8332V8.63763H96.9755V3.70728H100.086V8.63763H104.555V11.2693H100.086V20.0086C100.086 20.6149 100.377 20.9162 100.961 20.9162H104.041V23.5478H99.9639V23.5443Z"/>
<path d="M113.489 23.9687C111.977 23.9687 110.661 23.6498 109.531 23.0155C108.404 22.3813 107.523 21.4842 106.889 20.3243C106.256 19.1645 105.937 17.8189 105.937 16.2875V15.9231C105.937 14.3708 106.249 13.0147 106.875 11.8548C107.498 10.6949 108.369 9.79783 109.486 9.16358C110.602 8.52933 111.897 8.21045 113.366 8.21045C114.836 8.21045 116.05 8.52933 117.128 9.16358C118.206 9.79783 119.046 10.6809 119.651 11.8092C120.256 12.9376 120.557 14.2586 120.557 15.7724V16.9533H109.111C109.15 18.2639 109.591 19.3081 110.424 20.0825C111.26 20.8605 112.299 21.2459 113.548 21.2459C114.717 21.2459 115.595 20.9831 116.19 20.461C116.785 19.9354 117.244 19.3327 117.566 18.6458L120.134 19.9774C119.851 20.5416 119.445 21.1373 118.913 21.761C118.377 22.3848 117.678 22.9104 116.813 23.3344C115.945 23.7584 114.84 23.9687 113.492 23.9687H113.489ZM109.139 14.5635H117.384C117.303 13.4352 116.901 12.5521 116.176 11.9179C115.452 11.2836 114.504 10.9647 113.338 10.9647C112.173 10.9647 111.218 11.2836 110.483 11.9179C109.748 12.5521 109.3 13.4352 109.139 14.5635Z"/>
<path d="M123.203 23.5445V8.63428H126.254V10.3899H126.737C126.979 9.76612 127.367 9.30708 127.899 9.01273C128.431 8.72188 129.092 8.57471 129.876 8.57471H131.657V11.3885H129.754C128.746 11.3885 127.92 11.6654 127.276 12.219C126.632 12.7727 126.31 13.6242 126.31 14.7736V23.5445H123.199H123.203Z"/>
<path d="M15.4983 32L15.1134 31.8178C14.6025 31.576 14.1021 31.3482 13.6157 31.124C4.836 27.0661 0 24.8305 0 3.49015V2.72624L15.4983 0L30.9966 2.72624V3.49015C30.9966 24.8305 26.1606 27.0661 17.3809 31.124C16.8945 31.3482 16.3976 31.5795 15.8832 31.8178L15.4983 32ZM1.81613 4.25405C1.91411 23.7127 5.8613 25.5383 14.375 29.4735C14.7425 29.6417 15.1134 29.8169 15.4948 29.9921C15.8762 29.8134 16.2507 29.6417 16.6146 29.4735C25.1283 25.5383 29.0755 23.7127 29.1735 4.25405L15.4913 1.84669L1.80913 4.25405H1.81613Z"/>
<mask id="mask0_3_2" style="mask-type:luminance" maskUnits="userSpaceOnUse" x="0" y="0" width="31" height="31">
<path d="M15.4984 0.921387L0.909851 3.48994C0.909851 25.4085 5.81234 26.4492 15.4984 30.9941C25.1844 26.4492 30.0869 25.4085 30.0869 3.48994L15.4984 0.921387Z" fill="white"/>
</mask>
<g mask="url(#mask0_3_2)">
<path fill-rule="evenodd" clip-rule="evenodd" d="M31.1927 5.48356H-0.195801V0.921143H31.1927V5.48356Z"/>
<path fill-rule="evenodd" clip-rule="evenodd" d="M31.1928 10.5652H-0.19574V6.91382H31.1928V10.5652Z"/>
<path fill-rule="evenodd" clip-rule="evenodd" d="M31.1928 15.2568H-0.19574V12.1907H31.1928V15.2568Z"/>
<path fill-rule="evenodd" clip-rule="evenodd" d="M31.1928 20.11H-0.19574V17.7236H31.1928V20.11Z"/>
<path fill-rule="evenodd" clip-rule="evenodd" d="M31.1928 25.25H-0.19574V23.4243H31.1928V25.25Z"/>
</g>
</g>
<defs>
<clipPath id="clip0_3_2">
<rect width="132" height="32"/>
</clipPath>
</defs>
</svg>