<svg  viewBox="0 0 30 30"  xmlns="http://www.w3.org/2000/svg">
<path fill-rule="evenodd" clip-rule="evenodd" d="M25.9386 5.78563C27.144 6.10831 28.0914 7.05561 28.414 8.26106C28.9972 10.4438 28.9995 15.0005 28.9995 15.0005C28.9995 15.0005 28.9995 19.5572 28.414 21.7399C28.0914 22.9454 27.144 23.8927 25.9386 24.2153C23.756 24.8008 14.9997 24.8008 14.9997 24.8008C14.9997 24.8008 6.24356 24.8008 4.06085 24.2153C2.85542 23.8927 1.90812 22.9454 1.58544 21.7399C1 19.5572 1 15.0005 1 15.0005C1 15.0005 1 10.4438 1.58544 8.26106C1.90812 7.05561 2.85542 6.10831 4.06085 5.78563C6.24356 5.2002 14.9997 5.2002 14.9997 5.2002C14.9997 5.2002 23.756 5.2002 25.9386 5.78563ZM19.4713 15.001L12.1971 19.2004V10.8015L19.4713 15.001Z" />
</svg>
