<?xml version="1.0" encoding="UTF-8"?>
<svg width="105px" height="126px" viewBox="0 0 105 126" version="1.1" xmlns="http://www.w3.org/2000/svg" xmlns:xlink="http://www.w3.org/1999/xlink">
    <title>icon</title>
    <g id="icon" stroke="none" stroke-width="1" fill="none" fill-rule="evenodd">
        <g id="Group" fill="#FFAC33" fill-rule="nonzero">
            <path d="M104.781694,54.7785 C104.270697,53.41 102.961707,52.5 101.498717,52.5 L59.2365129,52.5 L83.6138421,5.103 C84.3803368,3.612 83.9848395,1.7885 82.6653488,0.7525 C82.0283532,0.2485 81.2618586,0 80.498864,0 C79.6833697,0 78.8678754,0.287 78.21338,0.8505 L52.4990602,23.058 L1.21391953,67.3505 C0.107927276,68.306 -0.291069928,69.8495 0.219926491,71.218 C0.730922911,72.5865 2.03641376,73.5 3.49940351,73.5 L45.7616074,73.5 L21.3842782,120.897 C20.6177836,122.388 21.0132808,124.2115 22.3327715,125.2475 C22.9697671,125.7515 23.7362617,126 24.4992564,126 C25.3147506,126 26.1302449,125.713 26.7847403,125.1495 L52.4990602,102.942 L103.784201,58.6495 C104.893693,57.694 105.28919,56.1505 104.781694,54.7785 L104.781694,54.7785 Z" id="Path"></path>
        </g>
    </g>
</svg>