<svg width="169" height="134" viewBox="0 0 169 134" fill="none" xmlns="http://www.w3.org/2000/svg">
<g filter="url(#filter0_i_142_12324)">
<path fill-rule="evenodd" clip-rule="evenodd" d="M46.6074 -81.5166C54.1217 -79.5034 58.581 -71.7806 56.5675 -64.2673L49.3494 -37.3321C47.336 -29.8188 39.6122 -25.36 32.098 -27.3732C24.5837 -29.3864 20.1244 -37.1092 22.1379 -44.6225L29.356 -71.5577C31.3695 -79.071 39.0932 -83.5298 46.6074 -81.5166ZM24.953 -0.711044C32.4673 1.30214 36.9265 9.02492 34.9131 16.5383L27.695 43.4734C25.6815 50.9868 17.9578 55.4455 10.4436 53.4323C2.92931 51.4191 -1.52998 43.6964 0.483454 36.183L7.7016 9.24784C9.71504 1.7345 17.4388 -2.72424 24.953 -0.711044ZM152.516 -18.1146C158.016 -12.6144 158.016 -3.69696 152.516 1.80318L132.795 21.5211C127.294 27.0212 118.376 27.0212 112.875 21.5211C107.374 16.021 107.374 7.10347 112.875 1.60333L132.595 -18.1146C138.096 -23.6147 147.015 -23.6147 152.516 -18.1146ZM93.3545 41.0392C98.8553 46.5393 98.8553 55.4568 93.3545 60.9569L73.6342 80.6749C68.1334 86.175 59.2148 86.175 53.714 80.6749C48.2132 75.1747 48.2132 66.2572 53.714 60.7571L73.4343 41.0392C78.9351 35.539 87.8537 35.539 93.3545 41.0392ZM205.556 104.648C213.071 102.634 217.53 94.9116 215.517 87.3983C213.503 79.8849 205.779 75.4262 198.265 77.4394L171.327 84.6566C163.812 86.6698 159.353 94.3926 161.367 101.906C163.38 109.419 171.104 113.878 178.618 111.865L205.556 104.648ZM124.741 126.299C132.255 124.286 136.715 116.563 134.701 109.05C132.688 101.537 124.964 97.078 117.45 99.0912L90.5112 106.308C82.997 108.322 78.5377 116.044 80.5511 123.558C82.5646 131.071 90.2883 135.53 97.8025 133.517L124.741 126.299Z" fill="white"/>
</g>
<defs>
<filter id="filter0_i_142_12324" x="0" y="-82" width="216" height="217" filterUnits="userSpaceOnUse" color-interpolation-filters="sRGB">
<feFlood flood-opacity="0" result="BackgroundImageFix"/>
<feBlend mode="normal" in="SourceGraphic" in2="BackgroundImageFix" result="shape"/>
<feColorMatrix in="SourceAlpha" type="matrix" values="0 0 0 0 0 0 0 0 0 0 0 0 0 0 0 0 0 0 127 0" result="hardAlpha"/>
<feOffset dy="1"/>
<feGaussianBlur stdDeviation="1"/>
<feComposite in2="hardAlpha" operator="arithmetic" k2="-1" k3="1"/>
<feColorMatrix type="matrix" values="0 0 0 0 0 0 0 0 0 0 0 0 0 0 0 0 0 0 0.25 0"/>
<feBlend mode="normal" in2="shape" result="effect1_innerShadow_142_12324"/>
</filter>
</defs>
</svg>
