<svg width="86" height="33" viewBox="0 0 86 33" fill="none" xmlns="http://www.w3.org/2000/svg">
<path d="M12.9257 25.199C11.5888 26.5555 9.87607 27.2337 7.78765 27.2337C5.69923 27.2337 4.00117 26.5604 2.69347 25.2136C1.39553 23.8669 0.746561 22.1152 0.746561 19.9584C0.746561 17.8017 1.41017 16.0402 2.73739 14.6739C4.06461 13.2979 5.77243 12.6099 7.86084 12.6099C9.94926 12.6099 11.6473 13.2979 12.955 14.6739C14.2725 16.0402 14.9312 17.8017 14.9312 19.9584C14.9312 22.0859 14.2627 23.8327 12.9257 25.199ZM7.78765 24.7452C9.06608 24.7452 10.081 24.3256 10.8324 23.4863C11.5839 22.6373 11.9596 21.4906 11.9596 20.0463V19.9291C11.9596 18.4458 11.5888 17.2698 10.8471 16.4013C10.1152 15.5327 9.11975 15.0985 7.86084 15.0985C6.60194 15.0985 5.59676 15.5327 4.84532 16.4013C4.09388 17.2698 3.71816 18.4458 3.71816 19.9291V20.0463C3.71816 21.5003 4.07925 22.647 4.80141 23.4863C5.53333 24.3256 6.52875 24.7452 7.78765 24.7452ZM24.154 27.3362C19.255 27.3362 16.4054 25.1063 15.6052 20.6464H18.8403C19.133 22.1005 19.6844 23.1398 20.4944 23.7644C21.3142 24.3792 22.4999 24.6866 24.0515 24.6866C25.3983 24.6866 26.4425 24.3939 27.1842 23.8083C27.9356 23.213 28.3113 22.3884 28.3113 21.3344C28.3113 20.9538 28.2137 20.6123 28.0186 20.3097C27.8331 20.0072 27.5989 19.7584 27.3159 19.5632C27.0427 19.368 26.6523 19.1875 26.1448 19.0216C25.6374 18.8459 25.1689 18.7093 24.7396 18.6117C24.3199 18.5141 23.7637 18.4019 23.0708 18.275C22.5438 18.1677 22.0705 18.0652 21.6508 17.9676C21.2312 17.8602 20.7774 17.7236 20.2895 17.5577C19.8015 17.3821 19.3721 17.2015 19.0013 17.0161C18.6402 16.8209 18.2791 16.5818 17.918 16.2988C17.557 16.0158 17.2593 15.7084 17.0251 15.3766C16.8006 15.035 16.6152 14.6398 16.4688 14.1909C16.3322 13.7322 16.2639 13.2345 16.2639 12.6978C16.2639 10.9704 16.9177 9.54561 18.2254 8.42333C19.5331 7.30105 21.2068 6.73991 23.2464 6.73991C25.5203 6.73991 27.3452 7.30105 28.7212 8.42333C30.0972 9.53585 30.9316 11.19 31.2244 13.3858H28.0186C27.8136 11.9707 27.311 10.9509 26.5108 10.3263C25.7203 9.69199 24.6224 9.37483 23.2172 9.37483C21.9973 9.37483 21.0263 9.66272 20.3041 10.2385C19.5917 10.8143 19.2355 11.5852 19.2355 12.5514C19.2355 12.8832 19.2941 13.1857 19.4112 13.459C19.538 13.7224 19.7234 13.9518 19.9674 14.147C20.2212 14.3324 20.4944 14.4983 20.7872 14.6447C21.0897 14.791 21.4508 14.9228 21.8704 15.0399C22.2901 15.1473 22.6902 15.2448 23.0708 15.3327C23.4611 15.4107 23.9149 15.4986 24.4321 15.5962C24.5395 15.6157 24.6224 15.6303 24.681 15.6401C25.4422 15.7865 26.0961 15.9377 26.6426 16.0939C27.1891 16.2403 27.7746 16.4598 28.3992 16.7526C29.0335 17.0356 29.5458 17.3625 29.9362 17.7334C30.3266 18.1042 30.6535 18.5873 30.917 19.1826C31.1805 19.7681 31.3122 20.4366 31.3122 21.188C31.3122 23.0325 30.673 24.5207 29.3946 25.6528C28.1162 26.7751 26.3693 27.3362 24.154 27.3362ZM32.9377 26.9995V12.8441H35.88V15.523C36.6607 13.5419 38.1099 12.5514 40.2276 12.5514C41.7695 12.5514 42.9748 13.0588 43.8433 14.0738C44.7119 15.0789 45.1461 16.5184 45.1461 18.3921V26.9995H42.1745V18.5385C42.1745 16.2842 41.2279 15.157 39.3347 15.157C38.2319 15.157 37.378 15.5962 36.7729 16.4745C36.1776 17.3528 35.88 18.6019 35.88 20.2219V26.9995H32.9377ZM51.5584 27.3655C50.0555 27.3655 48.8649 26.9946 47.9866 26.253C47.1083 25.5015 46.6691 24.511 46.6691 23.2813C46.6691 22.8324 46.7179 22.4274 46.8155 22.0664C46.9131 21.6955 47.04 21.3783 47.1961 21.1149C47.362 20.8416 47.5816 20.5928 47.8548 20.3683C48.1378 20.1341 48.416 19.9438 48.6892 19.7974C48.9625 19.6413 49.3089 19.4949 49.7285 19.3582C50.1482 19.2119 50.5337 19.0948 50.885 19.0069C51.2363 18.9191 51.6706 18.8166 52.1878 18.6995C52.4415 18.641 52.7587 18.5726 53.1393 18.4946C53.5297 18.4165 53.8224 18.358 54.0176 18.3189C54.2225 18.2799 54.4616 18.2262 54.7349 18.1579C55.0081 18.0896 55.2131 18.031 55.3497 17.9822C55.4961 17.9334 55.6474 17.87 55.8035 17.7919C55.9694 17.7139 56.0914 17.6309 56.1695 17.5431C56.2573 17.4552 56.3207 17.3577 56.3598 17.2503V17.0454C56.3598 16.4208 56.1109 15.9231 55.6132 15.5522C55.1155 15.1716 54.3543 14.9813 53.3296 14.9813C52.2952 14.9813 51.49 15.2058 50.9143 15.6547C50.3482 16.0939 50.036 16.7184 49.9774 17.5284V17.7041H47.0058C47.0448 16.1329 47.6401 14.8935 48.7917 13.9859C49.9432 13.0686 51.4656 12.6099 53.3589 12.6099C55.2228 12.6099 56.6525 13.0393 57.6479 13.8981C58.6434 14.7569 59.1411 16.0646 59.1411 17.8212V24.8037L59.1703 26.9995H56.3305V24.8769C55.8621 25.6967 55.2082 26.3164 54.3689 26.736C53.5394 27.1557 52.6026 27.3655 51.5584 27.3655ZM52.1 25.1112C53.232 25.1112 54.1982 24.7989 54.9984 24.1743C55.7986 23.5497 56.2524 22.5933 56.3598 21.3052V19.5632C56.1548 19.6998 55.8865 19.8316 55.5546 19.9584C55.2326 20.0853 54.9545 20.178 54.7203 20.2366C54.486 20.2951 54.1152 20.3829 53.6077 20.5C53.11 20.6172 52.7782 20.6952 52.6123 20.7343C52.1439 20.8514 51.7535 20.9685 51.4412 21.0856C51.1387 21.2027 50.8411 21.354 50.5483 21.5394C50.2555 21.7248 50.036 21.9541 49.8896 22.2274C49.7432 22.4909 49.67 22.8032 49.67 23.1642C49.67 23.7595 49.8847 24.2328 50.3141 24.5842C50.7435 24.9355 51.3388 25.1112 52.1 25.1112ZM61.4838 32.5768V12.8441H64.3676V14.9521C64.875 14.1909 65.5191 13.6005 66.2999 13.1808C67.0903 12.7612 67.9735 12.5514 68.9494 12.5514C70.8036 12.5514 72.326 13.215 73.5166 14.5422C74.717 15.8597 75.3171 17.626 75.3171 19.8413V19.8706C75.3171 22.1152 74.717 23.9157 73.5166 25.2722C72.3163 26.6189 70.7841 27.2923 68.9201 27.2923C67.9638 27.2923 67.0952 27.0873 66.3145 26.6775C65.5435 26.2676 64.9043 25.6967 64.3969 24.9648V32.5768H61.4838ZM68.2028 24.7745C69.4227 24.7745 70.3986 24.35 71.1305 23.5009C71.8625 22.6421 72.2284 21.4613 72.2284 19.9584V19.7388C72.2284 18.2457 71.8673 17.0942 71.1452 16.2842C70.423 15.4742 69.4422 15.0692 68.2028 15.0692C66.983 15.0692 66.012 15.5132 65.2898 16.4013C64.5774 17.2893 64.2212 18.4458 64.2212 19.8706V20.1048C64.2212 21.5101 64.5774 22.6421 65.2898 23.5009C66.0022 24.35 66.9732 24.7745 68.2028 24.7745Z" fill="#FF4A4A"/>
<path fill-rule="evenodd" clip-rule="evenodd" d="M76.5898 2.02832C77.0073 2.14017 77.255 2.56921 77.1431 2.98662L76.7421 4.48303C76.6303 4.90044 76.2012 5.14815 75.7837 5.0363C75.3663 4.92446 75.1185 4.49541 75.2304 4.078L75.6314 2.5816C75.7432 2.16419 76.1723 1.91648 76.5898 2.02832ZM75.3868 6.51754C75.8042 6.62939 76.052 7.05843 75.9401 7.47584L75.5391 8.97225C75.4272 9.38966 74.9982 9.63737 74.5807 9.52553C74.1632 9.41368 73.9155 8.98464 74.0273 8.56723L74.4284 7.07082C74.5402 6.65341 74.9693 6.4057 75.3868 6.51754ZM82.4736 5.55067C82.7792 5.85624 82.7792 6.35166 82.4736 6.65722L81.378 7.75267C81.0724 8.05824 80.577 8.05824 80.2714 7.75267C79.9658 7.44711 79.9658 6.95169 80.2714 6.64612L81.3669 5.55067C81.6725 5.24511 82.168 5.24511 82.4736 5.55067ZM79.1869 8.83701C79.4925 9.14258 79.4925 9.638 79.1869 9.94356L78.0913 11.039C77.7857 11.3446 77.2902 11.3446 76.9846 11.039C76.679 10.7334 76.679 10.238 76.9846 9.93246L78.0802 8.83701C78.3858 8.53145 78.8813 8.53145 79.1869 8.83701ZM85.4204 12.3708C85.8378 12.259 86.0856 11.8299 85.9737 11.4125C85.8618 10.9951 85.4327 10.7474 85.0153 10.8593L83.5187 11.2602C83.1012 11.3721 82.8535 11.8011 82.9653 12.2185C83.0772 12.6359 83.5063 12.8836 83.9238 12.7718L85.4204 12.3708ZM80.9306 13.5737C81.348 13.4619 81.5958 13.0328 81.4839 12.6154C81.3721 12.198 80.943 11.9503 80.5255 12.0621L79.0289 12.4631C78.6115 12.5749 78.3637 13.004 78.4756 13.4214C78.5874 13.8388 79.0165 14.0865 79.434 13.9747L80.9306 13.5737Z" fill="#FF4A4A"/>
</svg>
