<svg width="64" height="64" viewBox="0 0 64 64" fill="none" xmlns="http://www.w3.org/2000/svg">
  <circle cx="32" cy="32" r="32" fill="url(#paint0_linear)" fill-opacity="0.1"/>
  <path opacity="0.6" d="M57.0073 29.884C57.2293 25.2734 54.0091 22.2148 50.3749 20.1149L48.0127 33.9925C49.6481 33.9012 50.4476 34.522 50.7383 34.8142C51.1017 35.1794 52.0103 36.275 50.92 38.0097C53.1914 37.6445 56.7391 35.4533 57.0073 29.884Z" fill="url(#paint1_linear)"/>
  <path opacity="0.6" fill-rule="evenodd" clip-rule="evenodd" d="M43.415 38.5618C40.5924 39.9469 37.246 40.7488 33.6579 40.7488C23.5723 40.7488 15.3962 34.413 15.3962 26.5973C15.3962 20.8239 19.8577 15.858 26.2547 13.657C14.0886 14.3578 4.31201 24.1314 4.31201 36.1911C4.31201 50.1091 16.7184 61.6093 32.0226 61.6093C43.4505 61.6093 52.9632 54.9835 57.9371 46.1187C51.0932 47.6578 42.9915 44.7316 43.415 38.5618Z" fill="url(#paint2_linear)"/>
  <path fill-rule="evenodd" clip-rule="evenodd" d="M25.9689 13.6751C26.064 13.6685 26.1592 13.6625 26.2545 13.657C19.8575 15.858 15.396 20.8239 15.396 26.5973C15.396 34.413 23.572 40.7488 33.6577 40.7488C37.2458 40.7488 40.5922 39.9469 43.4147 38.5618C43.3996 38.7816 43.3954 38.9974 43.4015 39.2089C43.4553 39.0033 43.5067 38.7873 43.5553 38.5605C44.3548 34.8354 46.8261 33.9955 48.2797 33.9955C48.9763 33.6607 50.6056 32.0417 51.5505 28.2436C52.4954 24.4455 51.1568 21.2439 50.3694 20.1179L49.4609 19.6614C49.4609 19.6614 49.6426 18.5658 49.4609 17.8354C38.631 11.0427 27.4438 10.3792 23.204 10.8966L25.9689 13.6751ZM43.3532 20.2271C43.5414 20.1315 44.2008 19.7791 44.9059 19.0447C46.3178 19.2337 47.7061 19.6836 47.7061 19.6836C45.1415 18.1209 41.6362 17.1972 37.7525 17.2211C37.7525 17.2211 39.2358 19.3512 43.3532 20.2271Z" fill="url(#paint3_linear)"/>
  <defs>
    <linearGradient id="paint0_linear" x1="32" y1="22.3944" x2="32" y2="64.8414" gradientUnits="userSpaceOnUse">
      <stop stop-color="white"/>
      <stop offset="1" stop-color="white" stop-opacity="0"/>
    </linearGradient>
    <linearGradient id="paint1_linear" x1="50.9265" y1="22.034" x2="60.1802" y2="28.1239" gradientUnits="userSpaceOnUse">
      <stop stop-color="white"/>
      <stop offset="1" stop-color="white" stop-opacity="0.54"/>
    </linearGradient>
    <linearGradient id="paint2_linear" x1="21.6628" y1="18.7997" x2="46.8228" y2="55.5943" gradientUnits="userSpaceOnUse">
      <stop stop-color="white"/>
      <stop offset="1" stop-color="white" stop-opacity="0.54"/>
    </linearGradient>
    <linearGradient id="paint3_linear" x1="25.2291" y1="14.2401" x2="41.7141" y2="40.4038" gradientUnits="userSpaceOnUse">
      <stop stop-color="white"/>
      <stop offset="1" stop-color="white"/>
    </linearGradient>
  </defs>
</svg>
