<svg height="258" viewBox="0 0 258 258" width="258" xmlns="http://www.w3.org/2000/svg"><g fill="#fff" fill-rule="evenodd" transform="translate(18 39.741803)"><path d="m155.878763 109.234443c38.947197 5.759671 66.121237 18.786246 66.121237 33.93359 0 20.484332-49.696393 37.090164-111 37.090164-61.3036072 0-111-16.605832-111-37.090164 0-15.147344 27.1740399-28.173919 66.121237-33.93359 13.3773218 2.720475 28.655427 4.261459 44.878763 4.261459 15.816331 0 30.734263-1.464635 43.869366-4.057138z"/><path d="m139.092748 48.2491027c35.274754 3.9277533 60.707252 15.0497686 60.707252 28.156635 0 16.3874655-39.757114 29.6721313-88.8 29.6721313-49.0428858 0-88.8-13.2846658-88.8-29.6721313 0-13.1068664 25.4324978-24.2288817 60.7072522-28.156635 8.6400966 1.4129264 18.1318998 2.1935203 28.0927478 2.1935203 9.612406 0 18.788009-.726937 27.182799-2.0470944z"/><ellipse cx="111" cy="22.254098" rx="66.6" ry="22.254098"/></g></svg>